<?xml version="1.0" encoding="utf-8"?>
<!-- Generator: Adobe Illustrator 24.0.3, SVG Export Plug-In . SVG Version: 6.00 Build 0)  -->
<svg version="1.1" id="Lag_1" xmlns="http://www.w3.org/2000/svg" xmlns:xlink="http://www.w3.org/1999/xlink" x="0px" y="0px"
	 viewBox="0 0 339.2 95.3" style="enable-background:new 0 0 339.2 95.3;" xml:space="preserve">
<style type="text/css">
	.st0{fill:#FFFFFF;}
</style>
<title>Ikke-angivet-1</title>
<path id="path5724" class="st0" d="M272,75.6c1,0.6,2.1,1,3.3,1.4c1.1,0.4,2.3,0.6,3.5,0.6c1,0,2.1-0.2,3-0.7c0.9-0.6,1.6-1.5,2-2.5
	l2.7-6.2L266,22.1h18.8l9.8,28.2l9.7-28.1H322l-24.1,57c-1.7,4-4,6.8-7,8.5c-3.2,1.7-6.7,2.6-10.3,2.5c-2.3,0-4.6-0.2-6.9-0.8
	c-2.1-0.5-4.1-1.2-6-2.1L272,75.6z M250.6,48.4c-1,0.1-2,0.2-3,0.2c-1,0.1-2,0.3-3.1,0.4c-1.7,0.1-3.2,0.9-4.3,2.1
	c-0.8,1-1.3,2.3-1.3,3.6c0,1.3,0.5,2.5,1.4,3.4c1.1,0.9,2.5,1.4,4,1.3c1.2,0,2.3-0.2,3.4-0.6c1-0.4,2-0.9,2.8-1.6V48.4z M253.2,70.2
	l-1.4-3.8c-1.6,1.4-3.4,2.5-5.3,3.2c-2.5,0.9-5.1,1.4-7.8,1.3c-2.1,0-4.2-0.3-6.2-1c-1.8-0.6-3.5-1.6-5-2.9
	c-1.4-1.3-2.5-2.8-3.3-4.6c-0.8-1.9-1.2-4-1.2-6.1c-0.1-4.2,1.7-8.2,5-10.8c1.6-1.3,3.4-2.3,5.4-3.1c2.1-0.8,4.3-1.4,6.5-1.7
	c2.1-0.3,4.1-0.6,5.9-0.7c1.8-0.2,3.5-0.3,5-0.3v-1.2c0.1-1.7-0.6-3.3-1.9-4.3c-1.3-0.9-2.8-1.4-4.4-1.4c-1.9,0-3.7,0.4-5.4,1.1
	c-1.7,0.8-3.4,1.8-4.9,3l-7.7-8.6c2.6-2.3,5.6-4.1,8.8-5.4c3.7-1.4,7.7-2.1,11.7-2c6.3,0,11.3,1.5,15.1,4.6s5.6,7.8,5.6,14.3v30.4
	H253.2z M167.6,70.2L146.2,9.9h16.7l12.3,37.7l7.4-25.6h11.2l7.4,25.6l7.1-25.6H226L209,70.2h-13.2L188.1,45l-7.5,25.3L167.6,70.2z
	 M115.6,34.1v-12h6.8V9.9h17.3v12.1h7.3l4.3,12h-11.6v19.3c0,1.3,0.1,2.6,0.5,3.9c0.4,0.9,1.4,1.5,2.4,1.4c1.2,0,2.3-0.3,3.4-0.8
	c1-0.5,2-1.1,2.9-1.8l4.5,10.5c-2.2,1.5-4.6,2.6-7.1,3.4c-2.9,0.8-5.9,1.2-8.8,1.2c-2.4,0.1-4.9-0.3-7.2-1.1
	c-1.8-0.7-3.4-1.8-4.7-3.2c-1.2-1.5-2.1-3.2-2.5-5c-0.5-2.2-0.8-4.4-0.7-6.6V34.1H115.6z M99.8,40.2c-0.1-2.2-0.9-4.4-2.3-6.1
	c-1.2-1.4-3-2.2-4.9-2.2c-2,0-3.8,0.8-5.2,2.3c-1.5,1.7-2.5,3.8-2.6,6H99.8z M84.7,49.4c-0.1,5,3.8,9.1,8.8,9.2c0.2,0,0.5,0,0.7,0
	c1.9,0.1,3.8-0.3,5.6-1.2c1.7-0.9,3.1-2.1,4.3-3.6l10.6,8.3c-1.1,1.3-2.3,2.5-3.6,3.6c-3.1,2.5-6.8,4.1-10.7,4.9
	c-2.5,0.5-5.1,0.7-7.6,0.7c-3.3,0-6.5-0.5-9.6-1.6c-6-2-10.8-6.6-13.2-12.5c-1.4-3.5-2.1-7.2-2-10.9c-0.1-3.7,0.6-7.3,1.9-10.7
	c1.1-3,2.9-5.7,5.1-7.9c2.2-2.2,4.8-3.9,7.7-4.9c3.1-1.1,6.4-1.7,9.7-1.7c7.2,0,12.9,2.3,17.1,7c4.2,4.6,6.4,11.8,6.5,21.5H84.7z
	 M34.5,58c0.7,0.2,1.4,0.3,2.1,0.4c0.8,0.1,1.6,0.2,2.4,0.1c2.7,0.1,5.4-1,7.2-3.1c1.8-2.1,2.8-5.2,2.8-9.5c0-4.1-0.9-7.2-2.7-9.2
	c-1.7-1.9-4.2-3-6.9-3c-0.9,0-1.7,0.1-2.6,0.3c-0.8,0.2-1.6,0.4-2.4,0.6L34.5,58z M34.5,22.3c1.4-0.4,2.8-0.7,4.2-0.9
	c1.7-0.2,3.4-0.4,5.1-0.3c3.2-0.1,6.4,0.6,9.4,1.9c2.7,1.2,5,2.9,7,5.1c1.9,2.3,3.4,4.9,4.3,7.7c1,3.1,1.5,6.3,1.5,9.5
	c0.1,4-0.6,8-2,11.7c-1.2,3.1-3.2,5.9-5.7,8.1c-2.5,2.2-5.4,3.8-8.6,4.8c-3.5,1.1-7.2,1.6-10.9,1.6c-4,0-7.9-0.3-11.8-1.2
	c-3.3-0.7-6.5-1.6-9.7-2.8v-63h17.3V22.3z"/>
</svg>
