<?xml version="1.0" encoding="utf-8"?>
<!-- Generator: Adobe Illustrator 25.2.1, SVG Export Plug-In . SVG Version: 6.00 Build 0)  -->
<svg version="1.1" id="Lag_1" xmlns="http://www.w3.org/2000/svg" xmlns:xlink="http://www.w3.org/1999/xlink" x="0px" y="0px"
	 viewBox="0 0 339.2 62" style="enable-background:new 0 0 339.2 62;" xml:space="preserve">
<style type="text/css">
	.st0{fill:#FFFFFF;}
</style>
<path class="st0" d="M68.5,17.6c-12.3,0-21.9,9.3-21.9,21.9S56,61.3,68.5,61.3s22.1-9.4,22.1-21.9C90.6,27.1,81.2,17.6,68.5,17.6z
	 M68.6,52.3c-7,0-12.2-5.4-12.2-12.8c0-7.4,5.1-12.8,12.1-12.8c7.1,0,12.2,5.5,12.2,12.8S75.6,52.3,68.6,52.3z M93.3,27.1h6.1v33.3
	h9.8v-42H93.3V27.1z M22,26.6c5.1,0,9.2,3.2,10.8,7.9h10.4c-1.9-10.1-10.2-16.9-21-16.9C9.7,17.6,0.1,27,0.1,39.5S9.5,61.3,22,61.3
	c10.6,0,19.1-6.8,21-17H32.7c-1.5,4.7-5.5,8-10.7,8c-7.1,0-12.1-5.4-12.1-12.8C10,32.1,14.9,26.6,22,26.6z M279.2,35.4l-7.2-1.1
	c-3.4-0.5-5.9-1.6-5.9-4.3c0-2.9,3.2-4.4,7.5-4.4c4.7,0,7.7,2,8.4,5.4h9.5c-1.1-8.5-7.6-13.4-17.6-13.4c-10.4,0-17.2,5.3-17.2,12.8
	c0,7.2,4.5,11.3,13.5,12.6l7.2,1.1c3.5,0.5,5.5,1.9,5.5,4.5c0,3.3-3.4,4.7-8.2,4.7c-5.8,0-9.1-2.4-9.5-5.9h-9.6
	c0.9,8.2,7.3,14,19.1,14c10.7,0,17.8-4.9,17.8-13.3C292.5,40.5,287.3,36.6,279.2,35.4z M104.3,1.1c-3.6,0-6.3,2.6-6.3,6.2
	s2.7,6.2,6.3,6.2c3.6,0,6.3-2.6,6.3-6.2S107.9,1.1,104.3,1.1z M247.9,32.8c0-9.1-5.5-15.2-17.3-15.2c-11.1,0-17.3,5.6-18.5,14.2h9.7
	c0.5-3.3,3.1-6.1,8.6-6.1c5,0,7.4,2.2,7.4,4.9c0,3.5-4.5,4.4-10,5c-7.5,0.8-16.8,3.4-16.8,13.2c0,7.6,5.6,12.4,14.6,12.4
	c7,0,11.4-2.9,13.6-7.6c0.3,4.1,3.4,6.8,7.7,6.8h5.7v-8.7h-4.8L247.9,32.8L247.9,32.8z M238.3,43.4c0,5.6-4.9,9.8-10.8,9.8
	c-3.7,0-6.8-1.5-6.8-4.8c0-4.1,5-5.3,9.5-5.8c4.4-0.4,6.8-1.4,8.1-3.3V43.4z M186.4,17.6c-5.5,0-10,2.3-13.3,6.1v-23h-9.8v59.7h9.6
	v-5.5c3.3,4,7.9,6.3,13.5,6.3c11.7,0,20.6-9.3,20.6-21.8S197.9,17.6,186.4,17.6z M184.9,52.3c-7,0-12.2-5.4-12.2-12.8
	S178,26.6,185,26.6c7.1,0,12.1,5.4,12.1,12.8C197,46.8,191.9,52.3,184.9,52.3z M139.9,17.6c-6.4,0-10.5,2.6-13,6.3v-5.4h-9.7v42h9.8
	V37.6c0-6.4,4.1-11,10.1-11c5.6,0,9.1,4,9.1,9.8v24.1h9.8V35.7C156,25.1,150.6,17.6,139.9,17.6z M339.1,38.1
	c0-12-8.8-20.5-20.6-20.5c-12.6,0-21.8,9.4-21.8,21.9c0,13.1,9.9,21.8,21.9,21.8c10.2,0,18.2-6,20.2-14.5h-10.2
	c-1.5,3.7-5.1,5.9-9.9,5.9c-6.3,0-11-3.9-12.1-10.7h32.4L339.1,38.1L339.1,38.1z M307.3,34.9c1.6-5.9,6-8.7,11-8.7
	c5.5,0,9.8,3.2,10.8,8.7H307.3z"/>
</svg>
