<?xml version="1.0" encoding="utf-8"?>
<!-- Generator: Adobe Illustrator 24.0.3, SVG Export Plug-In . SVG Version: 6.00 Build 0)  -->
<svg version="1.1" id="Layer_1" xmlns="http://www.w3.org/2000/svg" xmlns:xlink="http://www.w3.org/1999/xlink" x="0px" y="0px"
	 viewBox="0 0 416 132.4" style="enable-background:new 0 0 416 132.4;" xml:space="preserve">
<style type="text/css">
	.st0{fill-rule:evenodd;clip-rule:evenodd;fill:#FEFEFE;}
	.st1{fill-rule:evenodd;clip-rule:evenodd;fill:#FFFFFF;}
</style>
<title>Artboard 1</title>
<g id="Layer_1_1_">
	<g id="layer1">
		<g id="g52">
			<path id="path15" class="st0" d="M125.7,49.1c0,1.1,2.7,10.1,2.7,18.2c0,11-0.4,16.8-4.5,26.9c-1.8,4.3-4.1,8.4-6.8,12.2
				c-0.9,1.3-1.9,2.5-2.8,3.7c8,0,16,0.4,24.1,0.4l3.1-28l11.4,29.6l11.2-29.6c0,0.7,0.2,2.4,0.3,3.2l1,10.2
				c0.2,2.2,0.4,4.7,0.6,6.8c0.3,2.3,0.5,5.9,0.8,8c6.4-0.4,12.5-1,18.9-1.6c0-0.5-0.4-2.9-0.5-3.6l-6.9-56.7h-17.3l-6,16.6
				l-2.2,5.4l-1-2.7l-6-16.5c-0.4-0.9-0.7-1.9-1-2.8C138.3,48.9,132.1,49.1,125.7,49.1L125.7,49.1z"/>
			<path id="path17" class="st0" d="M222.8,92.9c-13.2,0-18.9-14.9-10.3-23.5s23.5-2.3,23.5,9.6c0.1,3.6-1.3,7.1-3.9,9.6
				C229.7,91,226.8,92.9,222.8,92.9L222.8,92.9z M188.3,79c-0.1,6.6,2.1,13.1,6.2,18.3c5,6.5,12.2,11.1,20.2,12.7
				c1.1,0.2,2.3,0.4,3.5,0.5c2.6,0.2,5.2,0.2,7.8,0c11.4-0.5,21.7-8.3,27.1-18c1-1.9,1.8-3.9,2.3-6c2.6-12.1-0.5-21.2-8.8-29.6
				c-5.3-5.3-14-9.4-22.2-9.4c-6.7,0-10.8,0.1-17,3c-3.5,1.6-6.7,3.8-9.4,6.5C192.1,63,188.3,69.6,188.3,79z"/>
			<path id="path19" class="st0" d="M297.8,48.9v28.5c-0.5-0.4-3.8-6-4.4-7.1l-10.7-18l-1.1-1.8c-0.6-1.1-0.7-1.6-1.3-1.6h-17.7
				v61.9c5.9-0.4,12.8-0.9,18.5-1.3L281,105V80.6c0.6,0.4,3.9,6.1,4.5,7.1l12.2,20.1l1,1.7l17.8-0.1V47.6L297.8,48.9L297.8,48.9z"/>
			<path id="path21" class="st0" d="M48.2,67.3c-0.1,3.2,0.7,6.3,2.3,9.1c4.6,8.3,20.8,10.1,20.8,13.3c0,4.1-5.1,3.6-9,3.6
				c-2.3,0-4.6-0.2-6.9-0.5l-6.6-1V109c8.9,1,16.1,2.6,25,0.8c3.6-0.6,6.9-1.9,10-3.9c9.6-6.7,10.1-22.1,1.6-28.5
				c-4.4-3.3-8.7-5.1-13.8-7c-8.2-3.2-2.8-5.9,1.7-5.9c5.1,0,10.3,0.6,15.3,1.8c-2.1-9.2-3.3-12.4-6.1-17.8L82,48.3l-1.1-0.2
				C66.4,45.9,48.2,49,48.2,67.3L48.2,67.3z"/>
			<path id="path23" class="st0" d="M325.2,49.6v59.9h34.3l2.1-8.4c0.4-1.5,0.7-2.9,1-4.1l1-4.4h-19v-6.3h11.9v-15h-11.9v-5.8H362
				l-0.7-3.7c-0.6-2.9-1.3-5.9-2-8.8l-1-4h-32.5C325.3,48.9,325.2,49,325.2,49.6L325.2,49.6z"/>
			<path id="path25" class="st0" d="M362,49.1c0.5,1.6,1.2,3.2,2,4.8l10.8,23.5c0.4,0.8,0.6,1.5,1,2.3l3.3,7.2
				c1.3,3.1,1.9,1.4-0.7,6.9l-6.6,14.1c-0.5,1.3,0.6,0.8,2,0.9l12.6,1.3c2.1,0.1,4.2,0.3,6.3,0.7c0.1-0.6,0.5-1.3,0.7-1.8l15.4-40.4
				c2-4.9,3.9-10.5,5.9-15.4c0.4-1.1,0.8-2.1,1.1-3.3l0.2-0.8c-4.5,0-14.5-1.6-19.7-1.6l-4.6,14.9c-0.3,1-0.5,1.6-0.7,2.4
				c-0.3,0.9-0.5,1.8-0.7,2.7c-0.8-0.6-5.1-13.5-5.6-14.8c-0.3-0.9-0.6-1.6-0.9-2.5c-0.3-0.8-0.7-1.9-0.9-2.7l-4,0.2l-4.9,0.4
				l-6.8,0.6c-1.7,0.2-3.4,0.4-5.2,0.4L362,49.1z"/>
			<path id="path27" class="st0" d="M0,77.6c0,6.1-0.1,7.9,2,13.8c3.1,8.2,9.6,14.6,17.9,17.6c6.7,2.2,12.4,2.2,19.5,1
				c0.8-0.1,1.7-0.3,2.5-0.5l0.4-2.7l0.5-3.4l1-7.8l0.6-5.5l-2.1,0.9c-7.1,3.5-18.1,2.2-22.1-6.4c-1.5-3.7-1.5-7.9,0.1-11.7
				c1.6-3.1,4.3-5.5,7.7-6.7c3.5-1.3,7.3-1.4,11-0.5l0.6,0.1c1,0.3,2.1,0.7,3.1,1l1.7,0.7c-0.4-1.1-3-18.5-3.3-19
				c-1-1-8.9-1.1-11-1.1c-5.1,0.2-10.1,1.5-14.6,4c-3.9,2.3-7.2,5.4-9.8,9c-1.1,1.5-2,3.1-2.8,4.8C1.1,69.2,0.1,73.4,0,77.6z"/>
			<path id="path29" class="st1" d="M87.1,19.5c-7,0-5.8-6.2-2.9-9.3c3.4-3.7,13.2-7,13.2,0.6C97.4,14.8,91.3,19.5,87.1,19.5
				L87.1,19.5z M78.8,13.7c0,5.4,3.1,8.7,8.3,9.9c0.9,0.2,3-0.1,3.9,0.3c2.1,1,3.5,3,3.7,5.2c0.1,1.2-0.5,2.7-0.7,3.8
				c1,0.3,3,2.2,3.6,3.1c3.7,5,1,8.4,1,10.2c0,1.3,5.2,2.6,5.2,8.1c0,4.8-4.4,7.4-8.2,8.7c-1.9,0.6-2.9,0.9-1.9,3
				c8.3,0,12.9,1.8,15.2,9.1c0.5,1.7,1.5,2.7,2.5,1.5c0.1-0.1,1.6-6.7,8.2-3.9c0.8,0.4,1.5,0.8,2.4,1.2c1.2-0.8,1-1.9,0.7-3.9
				c-0.4-2.9,0.2-1-1.7-4.1c-0.4-0.7-0.7-1.2-1.1-1.8c-6.1-10.2,0.3-16.6,0.3-18.2c0-3.9-2.7-12.8-4.1-16.3
				c-2.7-6.9-6.1-13.5-10.3-19.6c-3.5-5.4-2.7-5.7-8.5-6.5c-1.5-0.2-2.7-0.4-4.1-0.8c-1.3-0.3-2.6-0.7-3.8-1.1
				c-6.8-2.7-3.2-1.1-5.4,2.1c-0.4,0.6-0.6,0.8-1.1,1.4C81.1,7.1,78.8,10.2,78.8,13.7L78.8,13.7z"/>
			<path id="path31" class="st1" d="M98.1,80.8c0,7.6-0.5,12.3-2.8,19.4c-2.1,6.6-5.2,12.9-9.3,18.5c-0.7,0.9-1.3,1.8-2.1,2.7
				l-2.2,2.5c-3.9,4.4-5.5,5.1-9.7,8.3c-0.2,0.2-0.3,0.2-0.4,0.3c5.3,0,16.5-5.3,21.1-8.6c3.3-2.3,6.3-4.9,9.1-7.7
				c3.3-3.4,6.2-7.2,8.7-11.2c2.1-3.5,4-7.2,5.6-11c0.3-0.8,0.6-1.6,0.9-2.5c0.6-1.6,1.1-3.1,1.7-5.1c0.5-2,2.3-9.1,2.4-11.1
				c-5.5-2.7-6.8,2.5-7.8,3.4c-1.6,1.5-4.1,1.5-5.8,0c-0.9-0.9-0.7-1.1-1-2.4c-1-4.4-6.4-8.3-11.3-8.3c-1.8,0,0.5,1.6,1.8,5.4
				C97.6,75.8,98,78.3,98.1,80.8L98.1,80.8z"/>
		</g>
	</g>
</g>
</svg>
