<?xml version="1.0" encoding="UTF-8"?> <!-- Generator: Adobe Illustrator 24.1.0, SVG Export Plug-In . SVG Version: 6.00 Build 0) --> <svg xmlns="http://www.w3.org/2000/svg" xmlns:xlink="http://www.w3.org/1999/xlink" version="1.1" id="Lag_1" x="0px" y="0px" viewBox="0 0 384 100" style="enable-background:new 0 0 384 100;" xml:space="preserve"> <style type="text/css"> .st0{fill:#FFFFFF;} </style> <g> <g> <g> <path class="st0" d="M352.9,57.4L352.9,57.4c-2-2.9-4.6-5.3-7.8-7.1c-3.1-1.7-6.6-3.1-10.5-4.1c-3.8-0.9-7.7-1.7-11.7-2.4 c-5.2-0.9-9.8-1.8-13.8-2.6c-3.8-0.8-7-1.9-9.5-3.1c-2.4-1.2-4.1-2.6-5.3-4.1c-1.1-1.5-1.7-3.5-1.7-5.9c0-2.1,0.5-3.9,1.6-5.5 c1.1-1.7,2.6-3.1,4.6-4.3c2-1.2,4.5-2.1,7.3-2.8c2.9-0.7,6-1,9.3-1c3.4,0,7.2,0.3,10.6,1c5.1,1.1,9.5,3.6,11.8,7 c1.1,1.6,1.6,3.5,1.6,6.4h13.3c-0.1-4.7-1.2-8.8-3.2-12.2c-2.1-3.5-5-6.3-8.5-8.4c-3.4-2-7.3-3.5-11.6-4.4 c-4.3-0.9-8.6-1.3-13.1-1.3c-4.7-0.1-9.3,0.4-13.8,1.3c-4.3,0.9-8.2,2.4-11.6,4.4c-3.5,2.1-6.3,4.9-8.5,8.4s-3.2,7.8-3.2,12.9 c0,7.6,3,13.3,8.9,17.1c5.6,3.5,13.8,6.1,24.3,7.8c4,0.7,7.9,1.3,11.6,1.9c3.6,0.6,6.9,1.5,9.7,2.6c2.7,1.1,4.9,2.5,6.5,4.3 c1.5,1.6,2.3,3.9,2.3,6.8c0,3-0.7,5.5-2,7.4c-1.4,2-3.2,3.6-5.4,4.7c-2.3,1.2-5,2-8,2.6c-2.8,0.5-6.8,0.8-10.1,0.8 c-3,0-7-0.1-10.9-0.8c-3-0.5-5.7-1.4-8-2.6c-2.2-1.2-4.1-2.7-5.4-4.7c-1.3-1.9-2-4.7-2-9c0-0.9,0-1,0-1h-13.3c0,0.3,0,0.6,0,1 c0,5.7,1.2,10.5,3.6,14.2c2.3,3.7,5.4,6.7,9.1,8.9c3.6,2.2,7.8,3.7,12.3,4.5c4.3,0.8,8.6,1.2,12.8,1.2c0,0,1.8,0,2.7,0 c4.3,0,8.7-0.4,13.1-1.2c4.5-0.8,8.6-2.4,12.3-4.5c3.7-2.2,6.8-5.2,9.1-8.9c2.4-3.8,3.6-8.5,3.6-14.2 C356,64.2,354.9,60.4,352.9,57.4z"></path> <g> <polygon class="st0" points="28,96.2 102.1,96.2 102.1,83.8 41.5,83.8 41.5,55.8 92.6,55.8 92.6,43.4 41.5,43.4 41.5,16.2 102.1,16.2 102.1,3.8 28,3.8 "></polygon> <path class="st0" d="M190.5,29.8c-1.7-15-15-26.1-30.1-26.1h-46v92.3h13.5l0,0V62.6l0,0h33.4C178.6,62.6,192.4,47.5,190.5,29.8z M161.2,49.9h-33.4l0,0V16.5h32.8c8.5,0,16.1,6.1,17.2,14.5C179.1,41.2,171.2,49.9,161.2,49.9z"></path> </g> </g> <g> <path class="st0" d="M257.3,16.1C248,7,236.6,2.3,223.4,2.3c-9.7,0-18.4,2.6-26.1,7.6l6.1,11.4c5.7-4.2,12.4-6.3,20-6.3 c9.7,0,17.9,3.4,24.3,10c6.5,6.6,9.7,15,9.7,25s-3.3,18.4-9.8,25c-6.4,6.6-14.5,10-24.3,10c-9.6,0-17.8-3.4-24.3-10 c-3-3.1-5.2-6.5-6.8-10.3c-0.1-0.2-0.2-0.4-0.2-0.6l-12.1,6.5c0.5,1.1,1.1,2.1,1.7,3.1c2.1,3.7,4.7,7.1,7.8,10.3 c9.2,9.1,20.6,13.7,33.8,13.7c13.3,0,24.7-4.6,34.1-13.7c9.3-9.1,14-20.6,14-34C271.3,36.5,266.6,25.1,257.3,16.1z"></path> </g> </g> </g> </svg> 