<?xml version="1.0" encoding="utf-8"?>
<!-- Generator: Adobe Illustrator 25.2.1, SVG Export Plug-In . SVG Version: 6.00 Build 0)  -->
<svg version="1.1" id="Lag_1" xmlns="http://www.w3.org/2000/svg" xmlns:xlink="http://www.w3.org/1999/xlink" x="0px" y="0px"
	 viewBox="0 0 356.7 139.6" style="enable-background:new 0 0 356.7 139.6;" xml:space="preserve">
<style type="text/css">
	.st0{fill:#FFFFFF;}
</style>
<g>
	<rect x="96.9" y="36.7" class="st0" width="34.6" height="15.4"/>
	<polygon class="st0" points="157.7,5.9 96.9,5.9 96.9,21.3 142.3,21.3 142.3,67.5 96.9,67.5 96.9,82.9 157.7,82.9 	"/>
	<rect x="168.4" y="36.7" class="st0" width="34.6" height="15.4"/>
	<polygon class="st0" points="168.4,21.3 213.8,21.3 213.8,67.5 168.4,67.5 168.4,82.9 229.2,82.9 229.2,5.9 168.4,5.9 	"/>
	<polygon class="st0" points="239.8,21.3 263.1,21.3 263.1,82.9 278.6,82.9 278.6,21.3 301.9,21.3 301.9,5.9 239.8,5.9 	"/>
	<polygon class="st0" points="86.2,67.5 57.8,67.5 57.8,5.9 42.3,5.9 42.3,82.9 86.2,82.9 	"/>
	<path class="st0" d="M91.8,122.2l0.3,0.3h3.6v8.3c-1.8,0.1-4.2,0.3-6.1,0.3c-2.8,0-7.3-0.5-7.3-4.1v-12.3c0-3.6,4-4.1,6.8-4.1
		c3.1,0,7.8,0.5,7.8,0.5l0.3-0.3v-2.1c0,0-4.5-0.5-8.6-0.5c-3.8,0-8.8,1-8.8,6.6v12.3c0,5.6,5.5,6.6,9.3,6.6c4.1,0,9.1-0.5,9.1-0.5
		v-13.1v0h-6.5V122.2z"/>
	<path class="st0" d="M250.4,122.2l0.3,0.3h3.6v8.3c-1.8,0.1-4.2,0.3-6.1,0.3c-2.8,0-7.3-0.5-7.3-4.1v-12.3c0-3.6,4-4.1,6.8-4.1
		c3.1,0,7.8,0.5,7.8,0.5l0.3-0.3v-2.1c0,0-4.5-0.5-8.6-0.5c-3.8,0-8.8,1-8.8,6.6v12.3c0,5.6,5.5,6.6,9.3,6.6c4.1,0,9.1-0.5,9.1-0.5
		v-13.1v0h-6.5V122.2z"/>
	<polygon class="st0" points="158.2,122.8 149.3,108.8 146,108.8 146,133.3 148.5,133.3 148.5,112.2 156.9,125.5 159.4,125.5 
		167.9,112.2 167.9,133.3 170.3,133.3 170.3,108.8 167,108.8 	"/>
	<rect x="185.7" y="108.8" class="st0" width="2.5" height="24.5"/>
	<polygon class="st0" points="220.5,130 207,108.8 203.6,108.8 203.6,133.3 206.1,133.3 206.1,112.1 219.7,133.3 223,133.3 
		223,108.8 220.5,108.8 	"/>
	<path class="st0" d="M120.3,108.6l-9.6,24.7h2.7l3.1-8h10.8l3.1,8h2.7l-9.6-24.7H120.3z M117.4,122.7l4.4-11.5l4.4,11.5H117.4z"/>
	<polygon class="st0" points="305.9,6.4 307.3,6.4 307.3,10.5 307.8,10.5 307.8,6.4 309.2,6.4 309.2,5.9 305.9,5.9 	"/>
	<polygon class="st0" points="313.4,5.9 312.1,9.8 310.8,5.9 309.9,5.9 309.9,10.5 310.4,10.5 310.4,6.5 310.5,6.5 311.8,10.3 
		312.4,10.3 313.7,6.5 313.8,6.5 313.8,10.5 314.4,10.5 314.4,5.9 	"/>
</g>
</svg>
