<?xml version="1.0" encoding="utf-8"?>
<!-- Generator: Adobe Illustrator 25.2.1, SVG Export Plug-In . SVG Version: 6.00 Build 0)  -->
<svg version="1.1" id="Lag_1" xmlns="http://www.w3.org/2000/svg" xmlns:xlink="http://www.w3.org/1999/xlink" x="0px" y="0px"
	 viewBox="0 0 356.7 139.6" style="enable-background:new 0 0 356.7 139.6;" xml:space="preserve">
<style type="text/css">
	.st0{fill:#FFFFFF;}
</style>
<g>
	<g>
		<path class="st0" d="M354.9,124.1c-1.3,0-1.6-0.2-2.8-1.3c0,0-2.7-2.2-5.9-4.7c-4.3,3.7-10,6-16.2,6c-13.8,0-24.9-11.1-24.9-24.9
			c0-13.7,11.1-24.9,24.9-24.9c13.7,0,24.9,11.1,24.9,24.9c0,5.2-1.6,10-4.3,14c2.6,2.1,4.6,3.6,4.6,3.6c0.5,0.4,1.5,1.9,1.5,3
			c0,0.9,0,2.1,0,2.6C356.6,123.1,356.2,124.1,354.9,124.1z M330,80.4c-10.4,0-18.9,8.5-18.9,18.9s8.5,18.9,18.9,18.9
			c4.3,0,8.2-1.4,11.3-3.8c-3-2.4-5.5-4.3-5.7-4.5c-0.5-0.5-1.3-1.9-1.3-2.9c0-0.9,0-2.1,0-2.6c0-0.6,0.4-1.7,1.7-1.7
			c1.3,0,1.6,0.2,2.8,1.3c1.4,1.2,4.2,3.3,7,5.6c1.9-3,3.1-6.5,3.1-10.3C348.9,88.8,340.4,80.4,330,80.4z M335.6,109.9l0.1,0.1
			C335.6,109.9,335.6,109.8,335.6,109.9z M295.2,124.1c-1.3,0-1.6-0.2-2.8-1.2c0.5,0.4-25.6-21.2-25.6-21.2s0,19.1,0,19.8
			c0,0.8-1.2,2.6-3,2.6s-3-1.7-3-2.6c0-13.8,0-26.6,0-26.6s0-2.2,0-2.6c0-0.6,0.4-1.7,1.7-1.7c1.3,0,1.6,0.2,2.8,1.3
			c1.2,1,20.9,17.2,25.5,21.1c0-3.7,0-35.4,0-36.1c0-0.8,1.2-2.6,3-2.6s3,1.7,3,2.6c0,13.8,0,42.9,0,42.9s0,2.2,0,2.6
			C296.9,123,296.5,124.1,295.2,124.1z M192,124.1c-2,0-3.3-1.9-3.3-2.8s0-18.6,0-21.5c-6.1,5.1-15.3,12.8-15.8,13.3
			c-0.8,0.6-1.4,1.2-3.3,1.2c-1.9,0-2.5-0.6-3.3-1.2c-0.5-0.4-9.7-8.1-15.8-13.3c0,4.1,0,20.6,0,21.5s-1.3,2.8-3.3,2.8
			s-3.2-1.9-3.2-2.8c0-15,0-28.8,0-28.8s0-2.4,0-2.8c0-0.7,0.5-1.9,1.9-1.9s1.7,0.3,3.1,1.4c1.3,1.1,20.6,17.2,20.6,17.2
			s19.3-16.1,20.6-17.2s1.7-1.4,3-1.4c1.4,0,1.9,1.2,1.9,1.9c0,0.5,0,2.3,0,3.3l0,0c0,5,0,27.5,0,28.3
			C195.2,122.2,193.9,124.1,192,124.1z M228.3,74.3c13.8,0,24.9,11.1,24.9,24.9c0,13.7-11.1,24.9-24.9,24.9
			c-13.7,0-24.9-11.1-24.9-24.9C203.4,85.5,214.5,74.3,228.3,74.3z M228.3,118.1c10.4,0,18.9-8.5,18.9-18.9s-8.5-18.9-18.9-18.9
			s-18.9,8.5-18.9,18.9C209.4,109.7,217.8,118.1,228.3,118.1z"/>
		<path class="st0" d="M335.6,109.9l0.1,0.1C335.6,109.9,335.6,109.8,335.6,109.9z M272.3,74.3c-3.6,0-9.7,0-9.7,0
			c-1.3,0-1.7-0.4-1.7-1.7c0,0,0-44.6,0-45.9c0-1.3,0.4-1.7,1.7-1.7c1.3,0,5.1,0,9.7,0c13.6,0,24.7,11,24.7,24.7
			C296.9,63.3,285.9,74.3,272.3,74.3z M272.5,31c-1.5,0-5.6,0-5.6,0v37.3c0,0,4,0,5.6,0c10.3,0,18.5-8.3,18.5-18.7
			C291,39.3,282.8,31,272.5,31z M250.2,74.3c-1.4,0-2.3-0.8-3-2.1c-0.2-0.5-2.7-5.4-5.9-11.6h-26c-3.1,6.2-5.6,11.1-5.9,11.6
			c-0.7,1.3-1.6,2.1-3,2.1c-1.8,0-3-1.4-3-3.2c0-0.2-0.1-0.5,0.4-1.5c11-21.7,20.2-40.7,21-42.5c1.3-2.7,5.5-2.8,6.9,0
			c1.1,2.2,20.5,41.5,21,42.5s0.4,1.3,0.4,1.5C253.2,72.9,251.9,74.3,250.2,74.3z M228.3,34.9c-1.4,2.7-5.8,11.4-10,19.8h20
			C234,46.3,229.6,37.6,228.3,34.9z M195.2,42.4v26.5l0,0c0,0.5,0,2.8,0,3.7c0,1.2-0.6,1.9-1.1,2.3s-20.4,17.2-21.2,17.8
			c-0.8,0.6-1.4,1.2-3.3,1.2c-1.9,0-2.5-0.6-3.3-1.2s-20.7-17.4-21.2-17.8c-0.5-0.5-1.1-1.1-1.1-2.3c0-0.9,0-3.7,0-3.7V42.4
			c0,0,0-2.8,0-3.3c0-0.7,0.5-1.9,1.9-1.9s1.7,0.3,3.1,1.4c1.3,1.1,20.6,17.2,20.6,17.2s19.3-16.1,20.6-17.2c1.3-1.1,1.7-1.4,3-1.4
			c1.4,0,1.9,1.2,1.9,1.9 M188.7,49.3c-6.1,5.1-15.3,12.8-15.8,13.3c-0.8,0.6-1.4,1.2-3.3,1.2c-1.9,0-2.5-0.6-3.3-1.2
			c-0.5-0.4-9.7-8.1-15.8-13.3v20.9c4.9,4.1,19,15.9,19,15.9s14.1-11.8,19-15.9V49.3H188.7z M172.9,42.1c-0.8,0.6-1.4,1.2-3.3,1.2
			c-1.9,0-2.5-0.6-3.3-1.2c-0.8-0.6-20.2-16.9-20.7-17.3c-0.5-0.5-1.6-2.1-1.6-3.3c0-0.9,0-2.3,0-2.8c0-0.7,0.5-1.9,1.9-1.9
			s1.7,0.3,3.1,1.4c1.3,1.1,20.6,17.2,20.6,17.2s19.3-16.1,20.6-17.2s1.7-1.4,3-1.4c1.4,0,1.9,1.2,1.9,1.9c0,0.5,0,1.9,0,2.8
			c0,1.2-1,2.8-1.6,3.3C193.2,25.2,173.7,41.4,172.9,42.1z"/>
		<g>
			<path class="st0" d="M137.2,130.5c-1-2.4-19.2-48.4-33.4-84.1c-2.9,3.9-7.6,10.1-7.9,10.7c-0.6,0.8-1.1,0.8-1.8,0.8
				c-0.6,0-1.3,0-1.3,0s-0.8,2.9-2,4.3c-1.2,1.3-3.2,4-3.2,4s3.3,1.1,5.5,1.8c2.2,0.6,3.1,2.2,3.8,3.8c0.6,1.5,11.5,29.3,11.8,29.8
				c0.3,0.4,3.7,3.5,4,3.8s5.7,9.5,6.7,11.2c0.8,1.3,0.8,3,0.8,4c0,1.1,0.1,2.5-0.8,3.5c-0.7,0.9-10.5,12.8-11.9,14.4
				c-0.3,0.4-0.7,0.8-1.2,1.1c14.2,0,25.1,0,26.4,0C137,139.2,138.7,134.3,137.2,130.5z"/>
			<path class="st0" d="M49.9,38.2c0,0,2.2,0.7,3.3,1c1,0.3,2,1,2.5,2.5s3.6,10.8,3.8,11.3s0.1,1.3-0.3,2c0,0,10,3.2,10.4,3.3
				s0.5,0.4,0,0.8c-1,0.6-3.9,2.3-4.1,2.4c-0.2,0.1-0.7,0.1-1-0.1c-0.3-0.2-5.9-4.6-5.9-4.6s0,2,1.3,3.1c1.2,1,9,9,9.5,9.5
				s0.9,0.8,1.5,0.8c1.7,0,2.4,0,3.9,0c0.6,0,1-0.3,1.5-0.8s8.3-8.4,9.5-9.5c1.2-1,1.3-3.1,1.3-3.1s-5.6,4.4-5.9,4.6
				c-0.3,0.2-0.8,0.2-1,0.1c-0.2-0.1-3.1-1.8-4.1-2.4c-0.5-0.3-0.4-0.7,0-0.8S86.5,55,86.5,55c-0.3-0.7-0.4-1.5-0.2-2
				c0.2-0.5,3.3-9.8,3.8-11.3s1.5-2.2,2.5-2.5s3.3-1,3.3-1s0.2-6.1,0.3-11.1c-5-12.4-8.5-21.1-9-22.4c-2-4.9-7.7-6.4-11.3-2.3
				C74.4,4.1,63,16.6,49.7,31.2C49.8,34.9,49.9,38.2,49.9,38.2z M66.1,21.4c0-0.2,0.4-0.7,0.7-0.5c0.3,0.3,4.8,3.9,5.1,4.1
				c0.3,0.2,0.6,0.5,0.9,0.5s0.6-0.2,0.9-0.5c0.3-0.2,4.8-3.9,5.1-4.1c0.3-0.2,0.7,0.2,0.7,0.5s0,1.4,0,1.8c0,0.1,0,0.6-0.4,0.9
				s-4.4,3.7-4.9,4.1s-1,0.7-1.4,0.7s-0.9-0.2-1.4-0.7c-0.5-0.4-4.6-3.8-5-4.1C66,23.8,66,23.2,66,23.2
				C66.1,22.8,66.1,21.7,66.1,21.4z M66.1,35c0-0.1,0-0.1,0-0.2V29c0-0.1,0-0.2,0-0.3c0-0.5,0-1.3,0-1.6c0-0.2,0.4-0.7,0.7-0.5
				c0.3,0.2,4.8,3.9,5.1,4.1c0.3,0.2,0.6,0.5,0.9,0.5s0.6-0.2,0.9-0.5c0.3-0.2,4.8-3.9,5.1-4.1c0.3-0.3,0.7,0.2,0.7,0.5
				c0,0.2,0,1,0,1.6c0,0.1,0,0.2,0,0.3v5.8c0,0,0,0.1,0,0.2c0,0.4,0,1.3,0,1.7c0,0.1,0,0.6-0.4,0.9c-0.4,0.3-4.4,3.7-4.9,4.1
				c-0.5,0.4-1,0.7-1.4,0.7s-0.9-0.2-1.4-0.7c-0.5-0.4-4.6-3.8-5-4.1S66,36.7,66,36.7C66.1,36.3,66.1,35.4,66.1,35z M66.1,42.4
				c0-0.1,0-0.2,0-0.3c0-0.5,0-1.3,0-1.6c0-0.2,0.4-0.7,0.7-0.5c0.3,0.3,4.8,3.9,5.1,4.1c0.3,0.2,0.6,0.5,0.9,0.5s0.6-0.2,0.9-0.5
				c0.3-0.2,4.8-3.9,5.1-4.1c0.3-0.3,0.7,0.2,0.7,0.5c0,0.2,0,1,0,1.6c0,0.1,0,0.2,0,0.3c0,1.3,0,6.5,0,6.9c0,0.1,0,0.2-0.1,0.3
				l-0.1,0.1c-0.1,0.1,0,0-0.1,0.1C79,50,78.7,50,78.4,50c-0.6,0-1.2-0.2-1.2-0.7c0-0.3,0-2.5,0-4.3c-1.3,1-2.7,2.2-3,2.5
				c-0.5,0.4-1,0.7-1.4,0.7s-0.9-0.2-1.4-0.7c-0.3-0.3-1.8-1.5-3-2.5c0,1.9,0,4.1,0,4.3c0,0.4-0.6,0.7-1.2,0.7S66,49.8,66,49.3
				C66.1,48.9,66.1,43.7,66.1,42.4z"/>
			<path class="st0" d="M72.9,38.9c0.3,0,0.6-0.2,0.9-0.5c0.2-0.2,2-1.7,3.5-2.8v-4.1c-1.3,1-2.7,2.2-3,2.5c-0.5,0.4-1,0.7-1.4,0.7
				S72,34.5,71.5,34c-0.3-0.3-1.8-1.5-3-2.5v4.1c1.4,1.2,3.3,2.7,3.5,2.8C72.2,38.7,72.5,38.9,72.9,38.9z"/>
			<path class="st0" d="M38.3,138.2c-1.5-1.8-11.2-13.5-11.9-14.4c-0.8-1-0.7-2.4-0.7-3.5s0-2.7,0.7-4c1-1.7,6.5-10.9,6.7-11.2
				c0.3-0.3,3.7-3.4,4-3.8S48.3,73,48.9,71.5c0.6-1.6,1.6-3.1,3.8-3.8c2.1-0.6,5.5-1.8,5.5-1.8s-2-2.7-3.2-4c-1.2-1.3-2-4.3-2-4.3
				s-0.6,0-1.3,0c-0.6,0-1.2,0-1.8-0.8c-0.6-0.7-9.7-13.1-10.2-13.8c-0.2-0.2-0.3-0.4-0.4-0.6C21.9,61.8,4.5,80.9,3,82.6
				c-3.1,3.4-4.3,9.9-1.2,15.5c3.1,5.5,18,33.5,19.2,35.8c1.2,2.3,4.6,5.3,7.4,5.3c0.5,0,4.7,0,11,0C39,138.9,38.7,138.6,38.3,138.2
				z"/>
			<path class="st0" d="M109,112.1c0,0-5.8-5.1-6.6-5.9c-0.8-0.7-1.1-1.2-1.3-1.8c-0.2-0.6-7.9-25.8-9.9-28.8s-8.4-4.9-8.4-4.9
				s-3.2,3.2-4.1,4.1s-2.7,0.8-3.3,0.8c-1.3,0-4.1,0-5.1,0c-0.6,0-2.4,0.1-3.3-0.8s-4.1-4.1-4.1-4.1s-6.4,1.8-8.4,4.9
				c-2,3-9.8,28.3-9.9,28.8c-0.2,0.6-0.4,1.1-1.3,1.8c-0.8,0.7-6.6,5.9-6.6,5.9s-1.1,5.8,0.5,10.2c1.6,4.4,4.5,8.4,8.7,10.7
				c4.1,2.3,8.7,2.6,8.7,2.6l18.3-8.4l18.3,8.4c0,0,4.5-0.3,8.7-2.6c4.1-2.3,7.1-6.3,8.7-10.7C110.1,117.8,109,112.1,109,112.1z
				 M81.6,114.1c-1.3,0-2.3-1-2.3-2.3s1-2.3,2.3-2.3s2.3,1,2.3,2.3C84,113.1,82.9,114.1,81.6,114.1z M86.5,118.4
				c-1.3,0-2.3-1-2.3-2.3s1-2.3,2.3-2.3s2.3,1,2.3,2.3S87.8,118.4,86.5,118.4z M84.2,107.5c0-1.3,1-2.3,2.3-2.3s2.3,1,2.3,2.3
				s-1,2.3-2.3,2.3C85.3,109.8,84.2,108.8,84.2,107.5z M91.1,114.1c-1.3,0-2.3-1-2.3-2.3s1-2.3,2.3-2.3s2.3,1,2.3,2.3
				C93.5,113.1,92.4,114.1,91.1,114.1z M101.1,124.3c0,0.5-0.4,0.5-0.5,0c-1.1-4.4-3.1-11.1-6.4-17.3c-3.3-6.2-6.3-6.6-7.7-6.6
				c-1.4,0-2.8,0.5-3.8,1.5c-1.7,1.6-2.6,2.5-3.3,3c-0.7,0.5-1.9,1.3-3.1,1.3c-1,0-5.7,0-6.7,0c-1.2,0-2.3-0.8-3.1-1.3
				c-0.7-0.5-1.6-1.5-3.3-3c-1.1-1-2.4-1.5-3.8-1.5c-1.4,0-4.4,0.4-7.7,6.6s-5.2,12.9-6.4,17.3c-0.1,0.5-0.5,0.5-0.5,0
				s-0.4-10.1,3.8-19.3s7.3-12,8.7-12.7s3.2-0.9,4.9-0.3c1.6,0.7,3.4,3,4.1,3.6c0.7,0.5,1.6,1,2.6,1c2.8,0.1,5.4,0.1,8.2,0
				c1,0,1.8-0.5,2.6-1c0.7-0.5,2.5-2.9,4.1-3.6s3.4-0.5,4.8,0.3c1.4,0.7,4.5,3.5,8.7,12.7C101.5,114.2,101.1,123.8,101.1,124.3z"/>
		</g>
	</g>
	<g id="registration_mark_2_">
		<path class="st0" d="M356.6,67.9c0,3-2.4,5.4-5.4,5.4s-5.5-2.4-5.5-5.4c0-2.9,2.4-5.3,5.5-5.3C354.2,62.6,356.6,64.9,356.6,67.9z
			 M347,67.9c0,2.4,1.7,4.2,4.1,4.2c2.3,0,4-1.9,4-4.2c0-2.4-1.7-4.3-4.1-4.3C348.8,63.6,347,65.5,347,67.9z M350.3,70.7h-1.2v-5.3
			c0.5-0.1,1.2-0.2,2-0.2c1,0,1.5,0.2,1.8,0.4c0.3,0.2,0.5,0.6,0.5,1.2s-0.5,1-1.1,1.2l0,0c0.5,0.2,0.8,0.6,1,1.3
			c0.2,0.8,0.3,1.1,0.4,1.3h-1.3c-0.2-0.2-0.3-0.7-0.4-1.3c-0.1-0.6-0.4-0.8-1.1-0.8h-0.6L350.3,70.7L350.3,70.7z M350.3,67.6h0.6
			c0.7,0,1.2-0.2,1.2-0.8c0-0.5-0.4-0.8-1.1-0.8c-0.3,0-0.5,0-0.7,0.1V67.6z"/>
	</g>
</g>
</svg>
