<?xml version="1.0" encoding="utf-8"?>
<!-- Generator: Adobe Illustrator 24.0.2, SVG Export Plug-In . SVG Version: 6.00 Build 0)  -->
<svg version="1.1" id="Content" xmlns="http://www.w3.org/2000/svg" xmlns:xlink="http://www.w3.org/1999/xlink" x="0px" y="0px"
	 viewBox="0 0 1920 7104" style="enable-background:new 0 0 1920 7104;" xml:space="preserve">
<style type="text/css">
	.st0{fill:#FF2350;}
	.st1{fill:#4173FF;}
	.st2{clip-path:url(#SVGID_2_);}
	.st3{opacity:0.14;}
	.st4{fill:#FFFFFF;}
	.st5{clip-path:url(#SVGID_4_);}
	.st6{clip-path:url(#SVGID_6_);}
	.st7{clip-path:url(#SVGID_8_);}
	.st8{clip-path:url(#SVGID_10_);}
	.st9{clip-path:url(#SVGID_12_);}
	.st10{clip-path:url(#SVGID_14_);}
</style>
<rect x="182.2" y="2240.6" class="st0" width="121.6" height="47.5"/>
<rect y="6339" class="st1" width="60.8" height="47.5"/>
<g>
	<g>
		<defs>
			<rect id="SVGID_1_" x="68.6" y="556.5" width="89.3" height="386.8"/>
		</defs>
		<clipPath id="SVGID_2_">
			<use xlink:href="#SVGID_1_"  style="overflow:visible;"/>
		</clipPath>
		<g class="st2">
			<polygon class="st1" points="260.7,569.5 223.7,588.9 219.1,591.3 215.5,584.5 200.4,556.5 188.8,556.5 189.9,558.6 216.5,610.2 
				253.8,592.6 257.8,590.7 260.5,596.1 267,608.7 267,581.2 			"/>
			<polygon class="st1" points="155.1,594.6 176.1,584.5 181.7,581.9 185.7,589.5 212.2,641.1 249.6,623.5 253.5,621.6 256.3,627 
				267,647.9 267,620 256.5,600.5 219.5,619.8 214.8,622.2 211.2,615.5 184.1,564.9 169,572.6 148.5,583.1 142.5,586.2 137.9,577.6 
				126.6,556.5 116.9,556.5 140.3,601.7 			"/>
			<polygon class="st1" points="68.6,556.5 68.6,562.7 81.4,556.5 			"/>
			<polygon class="st1" points="204.3,943.3 211.2,943.3 209.7,940.5 			"/>
			<polygon class="st1" points="220.7,579.3 258.1,561.7 262,559.8 264.8,565.2 267,569.5 267,556.5 230.8,556.5 228,557.9 
				223.3,560.4 221.2,556.5 209,556.5 			"/>
			<polygon class="st1" points="159.4,563.7 174.4,556.5 137.2,556.5 144.6,570.8 			"/>
			<polygon class="st1" points="68.6,932.6 74.2,943.3 84.1,943.3 68.6,914.3 			"/>
			<polygon class="st1" points="122.3,912.6 101.7,923.1 95.7,926.2 91.2,917.6 68.6,875.4 68.6,893.5 93.6,941.7 108.4,934.6 
				129.4,924.6 135,921.9 138.9,929.5 146,943.3 158,943.3 137.3,904.9 			"/>
			<polygon class="st1" points="118.5,943.3 137.1,943.3 133.1,935.8 			"/>
			<polygon class="st1" points="256.5,716.9 243.7,693.2 206.7,712.5 202.1,714.9 198.5,708.2 171.3,657.6 156.2,665.4 135.7,675.8 
				129.7,678.9 125.1,670.3 99,621.3 68.6,636.7 68.6,649.2 90.3,638.7 97,635.5 101.8,644.7 127.6,694.4 142.4,687.3 163.4,677.3 
				169,674.6 172.9,682.3 199.5,733.8 236.9,716.2 240.8,714.4 243.5,719.7 258.4,748.8 267,765.6 267,736.2 			"/>
			<polygon class="st1" points="92.8,666.4 97.6,675.6 123.3,725.3 138.1,718.2 159.1,708.2 164.7,705.5 168.7,713.2 195.2,764.7 
				232.6,747.1 236.6,745.3 239.3,750.6 254.2,779.7 267,804.8 267,775 252.3,747.8 239.5,724.1 202.5,743.4 197.8,745.8 
				194.2,739.1 167.1,688.5 152,696.3 131.5,706.8 125.5,709.8 120.9,701.2 94.7,652.2 68.6,665.5 68.6,678.1 86.1,669.6 			"/>
			<polygon class="st1" points="251.7,934.1 249,935.6 246.9,931.6 231.1,902.4 218.2,878.6 181.2,897.9 176.6,900.4 173,893.6 
				145.8,843 130.7,850.8 110.2,861.3 104.2,864.4 99.6,855.8 73.5,806.8 68.6,809.2 68.6,822.3 71.5,820.9 76.3,830.2 102.1,879.9 
				116.9,872.7 137.9,862.7 143.5,860.1 147.4,867.7 174,919.3 211.4,901.7 215.3,899.8 218.1,905.2 232.9,934.2 237.5,943.3 
				267,943.3 267,926 			"/>
			<polygon class="st1" points="253.3,904.6 251.1,900.7 235.3,871.5 222.5,847.7 185.5,867 180.8,869.5 177.2,862.7 150.1,812.1 
				135,819.9 114.5,830.4 108.5,833.5 103.9,824.9 77.7,775.9 68.6,780.5 68.6,793.5 69.1,793.3 75.8,790 80.6,799.3 106.4,848.9 
				121.1,841.8 142.2,831.8 147.7,829.2 151.7,836.8 178.3,888.4 215.6,870.8 219.6,868.9 222.3,874.3 237.2,903.3 250,928.5 
				267,920.6 267,897.4 256,903.2 			"/>
			<polygon class="st1" points="261.8,842.8 259.6,838.9 243.8,809.7 231,785.9 194,805.2 189.3,807.6 185.7,800.9 158.6,750.3 
				143.5,758.1 123,768.6 117,771.6 112.4,763 86.2,714 68.6,723 68.6,735.8 77.6,731.4 84.3,728.2 89.1,737.5 114.8,787.1 
				129.6,780 150.6,770 156.2,767.3 160.2,775 186.7,826.5 224.1,808.9 228.1,807.1 230.8,812.4 245.7,841.5 258.5,866.7 267,862.8 
				267,840.1 264.5,841.4 			"/>
			<polygon class="st1" points="257.5,873.7 255.4,869.8 239.5,840.6 226.7,816.8 189.7,836.1 185.1,838.5 181.5,831.8 154.3,781.2 
				139.2,789 118.7,799.5 112.7,802.5 108.1,794 82,745 68.6,751.7 68.6,764.6 73.3,762.4 80,759.1 84.8,768.4 110.6,818 
				125.4,810.9 146.4,800.9 152,798.3 155.9,805.9 182.5,857.4 219.9,839.9 223.8,838 226.5,843.3 241.4,872.4 254.3,897.6 
				267,891.7 267,868.7 260.2,872.3 			"/>
			<polygon class="st1" points="265,655.1 252.2,631.4 215.2,650.7 210.6,653.1 207,646.4 179.8,595.8 164.7,603.5 144.2,614 
				138.2,617.1 133.6,608.5 107.5,559.5 72.9,577.1 68.6,579.2 68.6,591.5 98.8,576.9 105.5,573.7 110.3,582.9 136.1,632.6 
				150.9,625.5 171.9,615.5 177.5,612.8 181.4,620.4 208,672 245.4,654.4 249.3,652.5 252,657.9 266.9,686.9 267,687.1 267,658.7 
							"/>
			<polygon class="st1" points="260.8,686 248,662.3 211,681.6 206.3,684 202.7,677.3 175.6,626.7 160.5,634.4 140,644.9 134,648 
				129.4,639.4 103.2,590.4 68.6,608 68.6,620.4 94.6,607.8 101.3,604.6 106.1,613.8 131.8,663.5 146.6,656.4 167.6,646.4 
				173.2,643.7 177.2,651.3 203.7,702.9 241.1,685.3 245,683.5 247.8,688.8 262.7,717.9 267,726.4 267,697.5 			"/>
			<polygon class="st1" points="88.5,697.3 93.3,706.5 119.1,756.2 133.9,749.1 154.9,739.1 160.5,736.4 164.4,744.1 191,795.6 
				228.4,778 232.3,776.2 235,781.5 249.9,810.6 262.8,835.8 267,833.8 267,811.4 266,811.9 263.9,808 248,778.8 235.2,755 
				198.2,774.3 193.6,776.7 190,770 162.8,719.4 147.7,727.2 127.2,737.7 121.2,740.7 116.6,732.1 90.5,683.1 68.6,694.2 
				68.6,706.9 81.8,700.5 			"/>
			<polygon class="st1" points="214,909.6 177,928.9 172.4,931.3 168.7,924.5 141.6,873.9 126.5,881.7 106,892.2 100,895.3 
				95.4,886.7 69.2,837.7 68.6,838 68.6,854.4 72.1,861.1 97.9,910.8 112.6,903.7 133.7,893.6 139.2,891 143.2,898.6 166.2,943.3 
				184.4,943.3 207.1,932.6 211.1,930.7 213.8,936.1 217.5,943.3 232.2,943.3 226.8,933.3 			"/>
		</g>
	</g>
</g>
<g>
	<g>
		<path class="st1" d="M1686.3,2789.1h-4.4v2.9h8C1689.6,2790.3,1688.3,2789.1,1686.3,2789.1z"/>
		<path class="st1" d="M1777.5,2789.1h-4.6v2.9h8.1C1780.9,2790.3,1779.5,2789.1,1777.5,2789.1z"/>
		<rect x="1864.8" y="2789.1" class="st1" width="7.4" height="2.9"/>
		<path class="st1" d="M1681.8,2849.8h3v-2.5h1.4c2,0,3.3-1.2,3.6-2.9h-8V2849.8z"/>
		<path class="st1" d="M1772.9,2849.8h3v-2.7h0.9l1.4,2.7h3.1l-1.8-3.3c0,0,1.2-0.6,1.4-2.2h-8.1L1772.9,2849.8z"/>
		<polygon class="st1" points="1864.8,2849.8 1872.3,2849.8 1872.3,2847.3 1867.8,2847.3 1867.8,2846.2 1871.1,2846.2 
			1871.1,2844.4 1864.8,2844.4 		"/>
	</g>
	<g>
		<path class="st1" d="M1686.3,2680.4h-4.4v2.9h8C1689.6,2681.6,1688.3,2680.4,1686.3,2680.4z"/>
		<path class="st1" d="M1777.5,2680.3h-4.6v2.9h8.1C1780.9,2681.6,1779.5,2680.3,1777.5,2680.3z"/>
		<rect x="1864.8" y="2680.4" class="st1" width="7.4" height="2.9"/>
		<path class="st1" d="M1681.8,2741.1h3v-2.5h1.4c2,0,3.3-1.2,3.6-2.9h-8V2741.1z"/>
		<path class="st1" d="M1772.9,2741.1h3v-2.7h0.9l1.4,2.7h3.1l-1.8-3.3c0,0,1.2-0.6,1.4-2.2h-8.1L1772.9,2741.1z"/>
		<polygon class="st1" points="1864.8,2741.1 1872.3,2741.1 1872.3,2738.6 1867.8,2738.6 1867.8,2737.5 1871.1,2737.5 
			1871.1,2735.6 1864.8,2735.6 		"/>
	</g>
	<g>
		<path class="st1" d="M1686.3,2571.6h-4.4v2.9h8C1689.6,2572.8,1688.3,2571.6,1686.3,2571.6z"/>
		<path class="st1" d="M1777.5,2571.6h-4.6v2.9h8.1C1780.9,2572.8,1779.5,2571.6,1777.5,2571.6z"/>
		<rect x="1864.8" y="2571.6" class="st1" width="7.4" height="2.9"/>
		<path class="st1" d="M1681.8,2632.3h3v-2.5h1.4c2,0,3.3-1.2,3.6-2.9h-8V2632.3z"/>
		<path class="st1" d="M1772.9,2632.3h3v-2.7h0.9l1.4,2.7h3.1l-1.8-3.3c0,0,1.2-0.6,1.4-2.2h-8.1L1772.9,2632.3z"/>
		<polygon class="st1" points="1864.8,2632.3 1872.3,2632.3 1872.3,2629.8 1867.8,2629.8 1867.8,2628.7 1871.1,2628.7 
			1871.1,2626.9 1864.8,2626.9 		"/>
	</g>
</g>
<g>
	<g>
		<path class="st0" d="M64.9,2680.7h-4.6v2.9h8.1C68.2,2681.9,66.9,2680.7,64.9,2680.7z"/>
		<rect x="152.1" y="2680.7" class="st0" width="7.4" height="2.9"/>
	</g>
	<g>
		<path class="st0" d="M64.9,2571.9h-4.6v2.9h8.1C68.2,2573.2,66.9,2571.9,64.9,2571.9z"/>
		<rect x="152.1" y="2571.9" class="st0" width="7.4" height="2.9"/>
		<path class="st0" d="M60.3,2632.6h3v-2.7h0.9l1.4,2.7h3.1l-1.8-3.3c0,0,1.2-0.6,1.4-2.2h-8.1L60.3,2632.6z"/>
		<polygon class="st0" points="152.1,2632.6 159.7,2632.6 159.7,2630.2 155.1,2630.2 155.1,2629 158.5,2629 158.5,2627.2 
			152.1,2627.2 		"/>
	</g>
	<g>
		<path class="st0" d="M64.9,2463.2h-4.6v2.9h8.1C68.2,2464.4,66.9,2463.2,64.9,2463.2z"/>
		<rect x="152.1" y="2463.2" class="st0" width="7.4" height="2.9"/>
		<path class="st0" d="M60.3,2523.9h3v-2.7h0.9l1.4,2.7h3.1l-1.8-3.3c0,0,1.2-0.6,1.4-2.2h-8.1L60.3,2523.9z"/>
		<polygon class="st0" points="152.1,2523.9 159.7,2523.9 159.7,2521.4 155.1,2521.4 155.1,2520.3 158.5,2520.3 158.5,2518.5 
			152.1,2518.5 		"/>
	</g>
</g>
<g>
	<g>
		<path class="st0" d="M64.9,357.1h-4.6v2.9h8.1C68.2,358.3,66.9,357.1,64.9,357.1z"/>
		<rect x="152.1" y="357.1" class="st0" width="7.4" height="2.9"/>
	</g>
	<g>
		<path class="st0" d="M64.9,248.3h-4.6v2.9h8.1C68.2,249.5,66.9,248.3,64.9,248.3z"/>
		<rect x="152.1" y="248.3" class="st0" width="7.4" height="2.9"/>
		<path class="st0" d="M60.3,309h3v-2.7h0.9l1.4,2.7h3.1l-1.8-3.3c0,0,1.2-0.6,1.4-2.2h-8.1L60.3,309z"/>
		<polygon class="st0" points="152.1,309 159.7,309 159.7,306.6 155.1,306.6 155.1,305.4 158.5,305.4 158.5,303.6 152.1,303.6 		"/>
	</g>
	<g>
		<path class="st0" d="M64.9,139.6h-4.6v2.9h8.1C68.2,140.8,66.9,139.6,64.9,139.6z"/>
		<rect x="152.1" y="139.6" class="st0" width="7.4" height="2.9"/>
		<path class="st0" d="M60.3,200.3h3v-2.7h0.9l1.4,2.7h3.1L67,197c0,0,1.2-0.6,1.4-2.2h-8.1L60.3,200.3z"/>
		<polygon class="st0" points="152.1,200.3 159.7,200.3 159.7,197.8 155.1,197.8 155.1,196.7 158.5,196.7 158.5,194.8 152.1,194.8 
					"/>
	</g>
</g>
<g class="st3">
	<g>
		<path class="st4" d="M334.9,1424.7h-4.6v2.9h8.1C338.2,1426,336.8,1424.7,334.9,1424.7z"/>
		<rect x="422.1" y="1424.7" class="st4" width="7.4" height="2.9"/>
		<polygon class="st4" points="514.6,1424.7 511.9,1424.7 511.9,1427.6 516.9,1427.6 		"/>
		<polygon class="st4" points="522.5,1424.7 519.8,1424.7 517.6,1427.6 522.5,1427.6 		"/>
		<rect x="607.1" y="1424.7" class="st4" width="3" height="2.9"/>
		<rect x="696.1" y="1424.7" class="st4" width="7.4" height="2.9"/>
		<path class="st4" d="M791.6,1424.7H787v2.9h8.1C794.9,1426,793.6,1424.7,791.6,1424.7z"/>
		<path class="st4" d="M330.3,1485.5h3v-2.7h0.9l1.4,2.7h3.1l-1.8-3.3c0,0,1.2-0.6,1.4-2.2h-8.1L330.3,1485.5z"/>
		<polygon class="st4" points="422.1,1485.5 429.6,1485.5 429.6,1483 425.1,1483 425.1,1481.8 428.4,1481.8 428.4,1480 422.1,1480 
					"/>
		<polygon class="st4" points="511.9,1485.5 514.9,1485.5 514.9,1480.4 517.2,1483.3 519.5,1480.4 519.5,1485.5 522.5,1485.5 
			522.5,1480 511.9,1480 		"/>
		<rect x="607.1" y="1480" class="st4" width="3" height="5.4"/>
		<polygon class="st4" points="696.1,1485.5 703.7,1485.5 703.7,1483 699.1,1483 699.1,1481.8 702.5,1481.8 702.5,1480 696.1,1480 
					"/>
		<path class="st4" d="M795.1,1480H787v5.4h3v-2.7h0.9l1.4,2.7h3.1l-1.8-3.3C793.7,1482.2,794.9,1481.6,795.1,1480z"/>
	</g>
	<g>
		<path class="st4" d="M334.9,1316h-4.6v2.9h8.1C338.2,1317.2,336.8,1316,334.9,1316z"/>
		<rect x="422.1" y="1316" class="st4" width="7.4" height="2.9"/>
		<polygon class="st4" points="514.6,1316 511.9,1316 511.9,1318.9 516.9,1318.9 		"/>
		<polygon class="st4" points="522.5,1316 519.8,1316 517.6,1318.9 522.5,1318.9 		"/>
		<rect x="607.1" y="1316" class="st4" width="3" height="2.9"/>
		<rect x="696.1" y="1316" class="st4" width="7.4" height="2.9"/>
		<path class="st4" d="M791.6,1316H787v2.9h8.1C794.9,1317.2,793.6,1316,791.6,1316z"/>
		<path class="st4" d="M330.3,1376.7h3v-2.7h0.9l1.4,2.7h3.1l-1.8-3.3c0,0,1.2-0.6,1.4-2.2h-8.1L330.3,1376.7z"/>
		<polygon class="st4" points="422.1,1376.7 429.6,1376.7 429.6,1374.2 425.1,1374.2 425.1,1373.1 428.4,1373.1 428.4,1371.3 
			422.1,1371.3 		"/>
		<polygon class="st4" points="511.9,1376.7 514.9,1376.7 514.9,1371.7 517.2,1374.6 519.5,1371.7 519.5,1376.7 522.5,1376.7 
			522.5,1371.3 511.9,1371.3 		"/>
		<rect x="607.1" y="1371.3" class="st4" width="3" height="5.4"/>
		<polygon class="st4" points="696.1,1376.7 703.7,1376.7 703.7,1374.2 699.1,1374.2 699.1,1373.1 702.5,1373.1 702.5,1371.3 
			696.1,1371.3 		"/>
		<path class="st4" d="M795.1,1371.3H787v5.4h3v-2.7h0.9l1.4,2.7h3.1l-1.8-3.3C793.7,1373.4,794.9,1372.8,795.1,1371.3z"/>
	</g>
	<g>
		<path class="st4" d="M334.9,1207.2h-4.6v2.9h8.1C338.2,1208.5,336.8,1207.2,334.9,1207.2z"/>
		<rect x="422.1" y="1207.2" class="st4" width="7.4" height="2.9"/>
		<polygon class="st4" points="514.6,1207.2 511.9,1207.2 511.9,1210.1 516.9,1210.1 		"/>
		<polygon class="st4" points="522.5,1207.2 519.8,1207.2 517.6,1210.1 522.5,1210.1 		"/>
		<rect x="607.1" y="1207.2" class="st4" width="3" height="2.9"/>
		<rect x="696.1" y="1207.2" class="st4" width="7.4" height="2.9"/>
		<path class="st4" d="M791.6,1207.2H787v2.9h8.1C794.9,1208.5,793.6,1207.2,791.6,1207.2z"/>
		<path class="st4" d="M330.3,1268h3v-2.7h0.9l1.4,2.7h3.1l-1.8-3.3c0,0,1.2-0.6,1.4-2.2h-8.1L330.3,1268z"/>
		<polygon class="st4" points="422.1,1268 429.6,1268 429.6,1265.5 425.1,1265.5 425.1,1264.3 428.4,1264.3 428.4,1262.5 
			422.1,1262.5 		"/>
		<polygon class="st4" points="511.9,1268 514.9,1268 514.9,1262.9 517.2,1265.8 519.5,1262.9 519.5,1268 522.5,1268 522.5,1262.5 
			511.9,1262.5 		"/>
		<rect x="607.1" y="1262.5" class="st4" width="3" height="5.4"/>
		<polygon class="st4" points="696.1,1268 703.7,1268 703.7,1265.5 699.1,1265.5 699.1,1264.3 702.5,1264.3 702.5,1262.5 
			696.1,1262.5 		"/>
		<path class="st4" d="M795.1,1262.5H787v5.4h3v-2.7h0.9l1.4,2.7h3.1l-1.8-3.3C793.7,1264.7,794.9,1264.1,795.1,1262.5z"/>
	</g>
	<g>
		<path class="st4" d="M334.9,1098.5h-4.6v2.9h8.1C338.2,1099.7,336.8,1098.5,334.9,1098.5z"/>
		<rect x="422.1" y="1098.5" class="st4" width="7.4" height="2.9"/>
		<polygon class="st4" points="514.6,1098.5 511.9,1098.5 511.9,1101.4 516.9,1101.4 		"/>
		<polygon class="st4" points="522.5,1098.5 519.8,1098.5 517.6,1101.4 522.5,1101.4 		"/>
		<rect x="607.1" y="1098.5" class="st4" width="3" height="2.9"/>
		<rect x="696.1" y="1098.5" class="st4" width="7.4" height="2.9"/>
		<path class="st4" d="M791.6,1098.5H787v2.9h8.1C794.9,1099.7,793.6,1098.5,791.6,1098.5z"/>
		<path class="st4" d="M330.3,1159.2h3v-2.7h0.9l1.4,2.7h3.1l-1.8-3.3c0,0,1.2-0.6,1.4-2.2h-8.1L330.3,1159.2z"/>
		<polygon class="st4" points="422.1,1159.2 429.6,1159.2 429.6,1156.7 425.1,1156.7 425.1,1155.6 428.4,1155.6 428.4,1153.8 
			422.1,1153.8 		"/>
		<polygon class="st4" points="511.9,1159.2 514.9,1159.2 514.9,1154.2 517.2,1157.1 519.5,1154.2 519.5,1159.2 522.5,1159.2 
			522.5,1153.8 511.9,1153.8 		"/>
		<rect x="607.1" y="1153.8" class="st4" width="3" height="5.4"/>
		<polygon class="st4" points="696.1,1159.2 703.7,1159.2 703.7,1156.7 699.1,1156.7 699.1,1155.6 702.5,1155.6 702.5,1153.8 
			696.1,1153.8 		"/>
		<path class="st4" d="M795.1,1153.8H787v5.4h3v-2.7h0.9l1.4,2.7h3.1l-1.8-3.3C793.7,1155.9,794.9,1155.3,795.1,1153.8z"/>
	</g>
	<g>
		<path class="st4" d="M334.9,989.7h-4.6v2.9h8.1C338.2,991,336.8,989.7,334.9,989.7z"/>
		<rect x="422.1" y="989.7" class="st4" width="7.4" height="2.9"/>
		<polygon class="st4" points="514.6,989.7 511.9,989.7 511.9,992.6 516.9,992.6 		"/>
		<polygon class="st4" points="522.5,989.7 519.8,989.7 517.6,992.6 522.5,992.6 		"/>
		<rect x="607.1" y="989.7" class="st4" width="3" height="2.9"/>
		<rect x="696.1" y="989.7" class="st4" width="7.4" height="2.9"/>
		<path class="st4" d="M791.6,989.7H787v2.9h8.1C794.9,991,793.6,989.7,791.6,989.7z"/>
		<path class="st4" d="M330.3,1050.5h3v-2.7h0.9l1.4,2.7h3.1l-1.8-3.3c0,0,1.2-0.6,1.4-2.2h-8.1L330.3,1050.5z"/>
		<polygon class="st4" points="422.1,1050.5 429.6,1050.5 429.6,1048 425.1,1048 425.1,1046.8 428.4,1046.8 428.4,1045 422.1,1045 
					"/>
		<polygon class="st4" points="511.9,1050.5 514.9,1050.5 514.9,1045.4 517.2,1048.3 519.5,1045.4 519.5,1050.5 522.5,1050.5 
			522.5,1045 511.9,1045 		"/>
		<rect x="607.1" y="1045" class="st4" width="3" height="5.4"/>
		<polygon class="st4" points="696.1,1050.5 703.7,1050.5 703.7,1048 699.1,1048 699.1,1046.8 702.5,1046.8 702.5,1045 696.1,1045 
					"/>
		<path class="st4" d="M795.1,1045H787v5.4h3v-2.7h0.9l1.4,2.7h3.1l-1.8-3.3C793.7,1047.2,794.9,1046.6,795.1,1045z"/>
	</g>
</g>
<g class="st3">
	<g>
		<path class="st4" d="M880.1,1424.7h-4.4v2.9h8C883.5,1426,882.1,1424.7,880.1,1424.7z"/>
		<path class="st4" d="M971.4,1424.7h-4.6v2.9h8.1C974.7,1426,973.4,1424.7,971.4,1424.7z"/>
		<rect x="1058.6" y="1424.7" class="st4" width="7.4" height="2.9"/>
		<polygon class="st4" points="1151.2,1424.7 1148.5,1424.7 1148.5,1427.6 1153.4,1427.6 		"/>
		<polygon class="st4" points="1159,1424.7 1156.4,1424.7 1154.1,1427.6 1159,1427.6 		"/>
		<rect x="1243.6" y="1424.7" class="st4" width="3" height="2.9"/>
		<rect x="1332.7" y="1424.7" class="st4" width="7.4" height="2.9"/>
		<path class="st4" d="M1428.2,1424.7h-4.6v2.9h8.1C1431.5,1426,1430.1,1424.7,1428.2,1424.7z"/>
		<path class="st4" d="M875.7,1485.5h3v-2.5h1.4c2,0,3.3-1.2,3.6-2.9h-8V1485.5z"/>
		<path class="st4" d="M966.8,1485.5h3v-2.7h0.9l1.4,2.7h3.1l-1.8-3.3c0,0,1.2-0.6,1.4-2.2h-8.1L966.8,1485.5z"/>
		<polygon class="st4" points="1058.6,1485.5 1066.2,1485.5 1066.2,1483 1061.6,1483 1061.6,1481.8 1065,1481.8 1065,1480 
			1058.6,1480 		"/>
		<polygon class="st4" points="1148.5,1485.5 1151.5,1485.5 1151.5,1480.4 1153.8,1483.3 1156,1480.4 1156,1485.5 1159,1485.5 
			1159,1480 1148.5,1480 		"/>
		<rect x="1243.6" y="1480" class="st4" width="3" height="5.4"/>
		<polygon class="st4" points="1332.7,1485.5 1340.2,1485.5 1340.2,1483 1335.7,1483 1335.7,1481.8 1339,1481.8 1339,1480 
			1332.7,1480 		"/>
		<path class="st4" d="M1431.7,1480h-8.1v5.4h3v-2.7h0.9l1.4,2.7h3.1l-1.8-3.3C1430.3,1482.2,1431.4,1481.6,1431.7,1480z"/>
	</g>
	<g>
		<path class="st4" d="M880.1,1316h-4.4v2.9h8C883.5,1317.2,882.1,1316,880.1,1316z"/>
		<path class="st4" d="M971.4,1316h-4.6v2.9h8.1C974.7,1317.2,973.4,1316,971.4,1316z"/>
		<rect x="1058.6" y="1316" class="st4" width="7.4" height="2.9"/>
		<polygon class="st4" points="1151.2,1316 1148.5,1316 1148.5,1318.9 1153.4,1318.9 		"/>
		<polygon class="st4" points="1159,1316 1156.4,1316 1154.1,1318.9 1159,1318.9 		"/>
		<rect x="1243.6" y="1316" class="st4" width="3" height="2.9"/>
		<rect x="1332.7" y="1316" class="st4" width="7.4" height="2.9"/>
		<path class="st4" d="M1428.2,1316h-4.6v2.9h8.1C1431.5,1317.2,1430.1,1316,1428.2,1316z"/>
		<path class="st4" d="M875.7,1376.7h3v-2.5h1.4c2,0,3.3-1.2,3.6-2.9h-8V1376.7z"/>
		<path class="st4" d="M966.8,1376.7h3v-2.7h0.9l1.4,2.7h3.1l-1.8-3.3c0,0,1.2-0.6,1.4-2.2h-8.1L966.8,1376.7z"/>
		<polygon class="st4" points="1058.6,1376.7 1066.2,1376.7 1066.2,1374.2 1061.6,1374.2 1061.6,1373.1 1065,1373.1 1065,1371.3 
			1058.6,1371.3 		"/>
		<polygon class="st4" points="1148.5,1376.7 1151.5,1376.7 1151.5,1371.7 1153.8,1374.6 1156,1371.7 1156,1376.7 1159,1376.7 
			1159,1371.3 1148.5,1371.3 		"/>
		<rect x="1243.6" y="1371.3" class="st4" width="3" height="5.4"/>
		<polygon class="st4" points="1332.7,1376.7 1340.2,1376.7 1340.2,1374.2 1335.7,1374.2 1335.7,1373.1 1339,1373.1 1339,1371.3 
			1332.7,1371.3 		"/>
		<path class="st4" d="M1431.7,1371.3h-8.1v5.4h3v-2.7h0.9l1.4,2.7h3.1l-1.8-3.3C1430.3,1373.4,1431.4,1372.8,1431.7,1371.3z"/>
	</g>
	<g>
		<path class="st4" d="M880.1,1207.2h-4.4v2.9h8C883.5,1208.5,882.1,1207.2,880.1,1207.2z"/>
		<path class="st4" d="M971.4,1207.2h-4.6v2.9h8.1C974.7,1208.5,973.4,1207.2,971.4,1207.2z"/>
		<rect x="1058.6" y="1207.2" class="st4" width="7.4" height="2.9"/>
		<polygon class="st4" points="1151.2,1207.2 1148.5,1207.2 1148.5,1210.1 1153.4,1210.1 		"/>
		<polygon class="st4" points="1159,1207.2 1156.4,1207.2 1154.1,1210.1 1159,1210.1 		"/>
		<rect x="1243.6" y="1207.2" class="st4" width="3" height="2.9"/>
		<rect x="1332.7" y="1207.2" class="st4" width="7.4" height="2.9"/>
		<path class="st4" d="M1428.2,1207.2h-4.6v2.9h8.1C1431.5,1208.5,1430.1,1207.2,1428.2,1207.2z"/>
		<path class="st4" d="M875.7,1268h3v-2.5h1.4c2,0,3.3-1.2,3.6-2.9h-8V1268z"/>
		<path class="st4" d="M966.8,1268h3v-2.7h0.9l1.4,2.7h3.1l-1.8-3.3c0,0,1.2-0.6,1.4-2.2h-8.1L966.8,1268z"/>
		<polygon class="st4" points="1058.6,1268 1066.2,1268 1066.2,1265.5 1061.6,1265.5 1061.6,1264.3 1065,1264.3 1065,1262.5 
			1058.6,1262.5 		"/>
		<polygon class="st4" points="1148.5,1268 1151.5,1268 1151.5,1262.9 1153.8,1265.8 1156,1262.9 1156,1268 1159,1268 1159,1262.5 
			1148.5,1262.5 		"/>
		<rect x="1243.6" y="1262.5" class="st4" width="3" height="5.4"/>
		<polygon class="st4" points="1332.7,1268 1340.2,1268 1340.2,1265.5 1335.7,1265.5 1335.7,1264.3 1339,1264.3 1339,1262.5 
			1332.7,1262.5 		"/>
		<path class="st4" d="M1431.7,1262.5h-8.1v5.4h3v-2.7h0.9l1.4,2.7h3.1l-1.8-3.3C1430.3,1264.7,1431.4,1264.1,1431.7,1262.5z"/>
	</g>
	<g>
		<path class="st4" d="M880.1,1098.5h-4.4v2.9h8C883.5,1099.7,882.1,1098.5,880.1,1098.5z"/>
		<path class="st4" d="M971.4,1098.5h-4.6v2.9h8.1C974.7,1099.7,973.4,1098.5,971.4,1098.5z"/>
		<rect x="1058.6" y="1098.5" class="st4" width="7.4" height="2.9"/>
		<polygon class="st4" points="1151.2,1098.5 1148.5,1098.5 1148.5,1101.4 1153.4,1101.4 		"/>
		<polygon class="st4" points="1159,1098.5 1156.4,1098.5 1154.1,1101.4 1159,1101.4 		"/>
		<rect x="1243.6" y="1098.5" class="st4" width="3" height="2.9"/>
		<rect x="1332.7" y="1098.5" class="st4" width="7.4" height="2.9"/>
		<path class="st4" d="M1428.2,1098.5h-4.6v2.9h8.1C1431.5,1099.7,1430.1,1098.5,1428.2,1098.5z"/>
		<path class="st4" d="M875.7,1159.2h3v-2.5h1.4c2,0,3.3-1.2,3.6-2.9h-8V1159.2z"/>
		<path class="st4" d="M966.8,1159.2h3v-2.7h0.9l1.4,2.7h3.1l-1.8-3.3c0,0,1.2-0.6,1.4-2.2h-8.1L966.8,1159.2z"/>
		<polygon class="st4" points="1058.6,1159.2 1066.2,1159.2 1066.2,1156.7 1061.6,1156.7 1061.6,1155.6 1065,1155.6 1065,1153.8 
			1058.6,1153.8 		"/>
		<polygon class="st4" points="1148.5,1159.2 1151.5,1159.2 1151.5,1154.2 1153.8,1157.1 1156,1154.2 1156,1159.2 1159,1159.2 
			1159,1153.8 1148.5,1153.8 		"/>
		<rect x="1243.6" y="1153.8" class="st4" width="3" height="5.4"/>
		<polygon class="st4" points="1332.7,1159.2 1340.2,1159.2 1340.2,1156.7 1335.7,1156.7 1335.7,1155.6 1339,1155.6 1339,1153.8 
			1332.7,1153.8 		"/>
		<path class="st4" d="M1431.7,1153.8h-8.1v5.4h3v-2.7h0.9l1.4,2.7h3.1l-1.8-3.3C1430.3,1155.9,1431.4,1155.3,1431.7,1153.8z"/>
	</g>
	<g>
		<path class="st4" d="M880.1,989.7h-4.4v2.9h8C883.5,991,882.1,989.7,880.1,989.7z"/>
		<path class="st4" d="M971.4,989.7h-4.6v2.9h8.1C974.7,991,973.4,989.7,971.4,989.7z"/>
		<rect x="1058.6" y="989.7" class="st4" width="7.4" height="2.9"/>
		<polygon class="st4" points="1151.2,989.7 1148.5,989.7 1148.5,992.6 1153.4,992.6 		"/>
		<polygon class="st4" points="1159,989.7 1156.4,989.7 1154.1,992.6 1159,992.6 		"/>
		<rect x="1243.6" y="989.7" class="st4" width="3" height="2.9"/>
		<rect x="1332.7" y="989.7" class="st4" width="7.4" height="2.9"/>
		<path class="st4" d="M1428.2,989.7h-4.6v2.9h8.1C1431.5,991,1430.1,989.7,1428.2,989.7z"/>
		<path class="st4" d="M875.7,1050.5h3v-2.5h1.4c2,0,3.3-1.2,3.6-2.9h-8V1050.5z"/>
		<path class="st4" d="M966.8,1050.5h3v-2.7h0.9l1.4,2.7h3.1l-1.8-3.3c0,0,1.2-0.6,1.4-2.2h-8.1L966.8,1050.5z"/>
		<polygon class="st4" points="1058.6,1050.5 1066.2,1050.5 1066.2,1048 1061.6,1048 1061.6,1046.8 1065,1046.8 1065,1045 
			1058.6,1045 		"/>
		<polygon class="st4" points="1148.5,1050.5 1151.5,1050.5 1151.5,1045.4 1153.8,1048.3 1156,1045.4 1156,1050.5 1159,1050.5 
			1159,1045 1148.5,1045 		"/>
		<rect x="1243.6" y="1045" class="st4" width="3" height="5.4"/>
		<polygon class="st4" points="1332.7,1050.5 1340.2,1050.5 1340.2,1048 1335.7,1048 1335.7,1046.8 1339,1046.8 1339,1045 
			1332.7,1045 		"/>
		<path class="st4" d="M1431.7,1045h-8.1v5.4h3v-2.7h0.9l1.4,2.7h3.1l-1.8-3.3C1430.3,1047.2,1431.4,1046.6,1431.7,1045z"/>
	</g>
</g>
<g class="st3">
	<g>
		<path class="st4" d="M1516.7,1424.7h-4.4v2.9h8C1520,1426,1518.7,1424.7,1516.7,1424.7z"/>
		<path class="st4" d="M1608,1424.7h-4.6v2.9h8.1C1611.3,1426,1609.9,1424.7,1608,1424.7z"/>
		<rect x="1695.2" y="1424.7" class="st4" width="7.4" height="2.9"/>
		<polygon class="st4" points="1787.7,1424.7 1785,1424.7 1785,1427.6 1790,1427.6 		"/>
		<polygon class="st4" points="1795.6,1424.7 1792.9,1424.7 1790.7,1427.6 1795.6,1427.6 		"/>
		<path class="st4" d="M1512.3,1485.5h3v-2.5h1.4c2,0,3.3-1.2,3.6-2.9h-8V1485.5z"/>
		<path class="st4" d="M1603.4,1485.5h3v-2.7h0.9l1.4,2.7h3.1l-1.8-3.3c0,0,1.2-0.6,1.4-2.2h-8.1L1603.4,1485.5z"/>
		<polygon class="st4" points="1695.2,1485.5 1702.7,1485.5 1702.7,1483 1698.2,1483 1698.2,1481.8 1701.5,1481.8 1701.5,1480 
			1695.2,1480 		"/>
		<polygon class="st4" points="1785,1485.5 1788,1485.5 1788,1480.4 1790.3,1483.3 1792.6,1480.4 1792.6,1485.5 1795.6,1485.5 
			1795.6,1480 1785,1480 		"/>
	</g>
	<g>
		<path class="st4" d="M1516.7,1316h-4.4v2.9h8C1520,1317.2,1518.7,1316,1516.7,1316z"/>
		<path class="st4" d="M1608,1316h-4.6v2.9h8.1C1611.3,1317.2,1609.9,1316,1608,1316z"/>
		<rect x="1695.2" y="1316" class="st4" width="7.4" height="2.9"/>
		<polygon class="st4" points="1787.7,1316 1785,1316 1785,1318.9 1790,1318.9 		"/>
		<polygon class="st4" points="1795.6,1316 1792.9,1316 1790.7,1318.9 1795.6,1318.9 		"/>
		<path class="st4" d="M1512.3,1376.7h3v-2.5h1.4c2,0,3.3-1.2,3.6-2.9h-8V1376.7z"/>
		<path class="st4" d="M1603.4,1376.7h3v-2.7h0.9l1.4,2.7h3.1l-1.8-3.3c0,0,1.2-0.6,1.4-2.2h-8.1L1603.4,1376.7z"/>
		<polygon class="st4" points="1695.2,1376.7 1702.7,1376.7 1702.7,1374.2 1698.2,1374.2 1698.2,1373.1 1701.5,1373.1 
			1701.5,1371.3 1695.2,1371.3 		"/>
		<polygon class="st4" points="1785,1376.7 1788,1376.7 1788,1371.7 1790.3,1374.6 1792.6,1371.7 1792.6,1376.7 1795.6,1376.7 
			1795.6,1371.3 1785,1371.3 		"/>
	</g>
	<g>
		<path class="st4" d="M1516.7,1207.2h-4.4v2.9h8C1520,1208.5,1518.7,1207.2,1516.7,1207.2z"/>
		<path class="st4" d="M1608,1207.2h-4.6v2.9h8.1C1611.3,1208.5,1609.9,1207.2,1608,1207.2z"/>
		<rect x="1695.2" y="1207.2" class="st4" width="7.4" height="2.9"/>
		<polygon class="st4" points="1787.7,1207.2 1785,1207.2 1785,1210.1 1790,1210.1 		"/>
		<polygon class="st4" points="1795.6,1207.2 1792.9,1207.2 1790.7,1210.1 1795.6,1210.1 		"/>
		<path class="st4" d="M1512.3,1268h3v-2.5h1.4c2,0,3.3-1.2,3.6-2.9h-8V1268z"/>
		<path class="st4" d="M1603.4,1268h3v-2.7h0.9l1.4,2.7h3.1l-1.8-3.3c0,0,1.2-0.6,1.4-2.2h-8.1L1603.4,1268z"/>
		<polygon class="st4" points="1695.2,1268 1702.7,1268 1702.7,1265.5 1698.2,1265.5 1698.2,1264.3 1701.5,1264.3 1701.5,1262.5 
			1695.2,1262.5 		"/>
		<polygon class="st4" points="1785,1268 1788,1268 1788,1262.9 1790.3,1265.8 1792.6,1262.9 1792.6,1268 1795.6,1268 
			1795.6,1262.5 1785,1262.5 		"/>
	</g>
	<g>
		<path class="st4" d="M1516.7,1098.5h-4.4v2.9h8C1520,1099.7,1518.7,1098.5,1516.7,1098.5z"/>
		<path class="st4" d="M1608,1098.5h-4.6v2.9h8.1C1611.3,1099.7,1609.9,1098.5,1608,1098.5z"/>
		<rect x="1695.2" y="1098.5" class="st4" width="7.4" height="2.9"/>
		<polygon class="st4" points="1787.7,1098.5 1785,1098.5 1785,1101.4 1790,1101.4 		"/>
		<polygon class="st4" points="1795.6,1098.5 1792.9,1098.5 1790.7,1101.4 1795.6,1101.4 		"/>
		<path class="st4" d="M1512.3,1159.2h3v-2.5h1.4c2,0,3.3-1.2,3.6-2.9h-8V1159.2z"/>
		<path class="st4" d="M1603.4,1159.2h3v-2.7h0.9l1.4,2.7h3.1l-1.8-3.3c0,0,1.2-0.6,1.4-2.2h-8.1L1603.4,1159.2z"/>
		<polygon class="st4" points="1695.2,1159.2 1702.7,1159.2 1702.7,1156.7 1698.2,1156.7 1698.2,1155.6 1701.5,1155.6 
			1701.5,1153.8 1695.2,1153.8 		"/>
		<polygon class="st4" points="1785,1159.2 1788,1159.2 1788,1154.2 1790.3,1157.1 1792.6,1154.2 1792.6,1159.2 1795.6,1159.2 
			1795.6,1153.8 1785,1153.8 		"/>
	</g>
	<g>
		<path class="st4" d="M1516.7,989.7h-4.4v2.9h8C1520,991,1518.7,989.7,1516.7,989.7z"/>
		<path class="st4" d="M1608,989.7h-4.6v2.9h8.1C1611.3,991,1609.9,989.7,1608,989.7z"/>
		<rect x="1695.2" y="989.7" class="st4" width="7.4" height="2.9"/>
		<polygon class="st4" points="1787.7,989.7 1785,989.7 1785,992.6 1790,992.6 		"/>
		<polygon class="st4" points="1795.6,989.7 1792.9,989.7 1790.7,992.6 1795.6,992.6 		"/>
		<path class="st4" d="M1512.3,1050.5h3v-2.5h1.4c2,0,3.3-1.2,3.6-2.9h-8V1050.5z"/>
		<path class="st4" d="M1603.4,1050.5h3v-2.7h0.9l1.4,2.7h3.1l-1.8-3.3c0,0,1.2-0.6,1.4-2.2h-8.1L1603.4,1050.5z"/>
		<polygon class="st4" points="1695.2,1050.5 1702.7,1050.5 1702.7,1048 1698.2,1048 1698.2,1046.8 1701.5,1046.8 1701.5,1045 
			1695.2,1045 		"/>
		<polygon class="st4" points="1785,1050.5 1788,1050.5 1788,1045.4 1790.3,1048.3 1792.6,1045.4 1792.6,1050.5 1795.6,1050.5 
			1795.6,1045 1785,1045 		"/>
	</g>
</g>
<g class="st3">
	<g>
		<rect x="60.3" y="2104.8" class="st4" width="3" height="2.9"/>
		<rect x="149.4" y="2104.8" class="st4" width="7.4" height="2.9"/>
		<path class="st4" d="M244.9,2104.8h-4.6v2.9h8.1C248.2,2106,246.8,2104.8,244.9,2104.8z"/>
		<rect x="60.3" y="2160.1" class="st4" width="3" height="5.4"/>
		<polygon class="st4" points="149.4,2165.5 156.9,2165.5 156.9,2163 152.4,2163 152.4,2161.9 155.7,2161.9 155.7,2160.1 
			149.4,2160.1 		"/>
		<path class="st4" d="M248.4,2160.1h-8.1v5.4h3v-2.7h0.9l1.4,2.7h3.1l-1.8-3.3C247,2162.2,248.1,2161.7,248.4,2160.1z"/>
	</g>
	<g>
		<rect x="60.3" y="1996.1" class="st4" width="3" height="2.9"/>
		<rect x="149.4" y="1996.1" class="st4" width="7.4" height="2.9"/>
		<path class="st4" d="M244.9,1996.1h-4.6v2.9h8.1C248.2,1997.3,246.8,1996.1,244.9,1996.1z"/>
		<rect x="60.3" y="2051.3" class="st4" width="3" height="5.4"/>
		<polygon class="st4" points="149.4,2056.8 156.9,2056.8 156.9,2054.3 152.4,2054.3 152.4,2053.2 155.7,2053.2 155.7,2051.3 
			149.4,2051.3 		"/>
		<path class="st4" d="M248.4,2051.3h-8.1v5.4h3v-2.7h0.9l1.4,2.7h3.1l-1.8-3.3C247,2053.5,248.1,2052.9,248.4,2051.3z"/>
	</g>
	<g>
		<rect x="60.3" y="1887.3" class="st4" width="3" height="2.9"/>
		<rect x="149.4" y="1887.3" class="st4" width="7.4" height="2.9"/>
		<path class="st4" d="M244.9,1887.3h-4.6v2.9h8.1C248.2,1888.5,246.8,1887.3,244.9,1887.3z"/>
		<rect x="60.3" y="1942.6" class="st4" width="3" height="5.4"/>
		<polygon class="st4" points="149.4,1948 156.9,1948 156.9,1945.5 152.4,1945.5 152.4,1944.4 155.7,1944.4 155.7,1942.6 
			149.4,1942.6 		"/>
		<path class="st4" d="M248.4,1942.6h-8.1v5.4h3v-2.7h0.9l1.4,2.7h3.1l-1.8-3.3C247,1944.7,248.1,1944.2,248.4,1942.6z"/>
	</g>
	<g>
		<rect x="60.3" y="1778.6" class="st4" width="3" height="2.9"/>
		<rect x="149.4" y="1778.6" class="st4" width="7.4" height="2.9"/>
		<path class="st4" d="M244.9,1778.6h-4.6v2.9h8.1C248.2,1779.8,246.8,1778.6,244.9,1778.6z"/>
		<rect x="60.3" y="1833.8" class="st4" width="3" height="5.4"/>
		<polygon class="st4" points="149.4,1839.3 156.9,1839.3 156.9,1836.8 152.4,1836.8 152.4,1835.7 155.7,1835.7 155.7,1833.8 
			149.4,1833.8 		"/>
		<path class="st4" d="M248.4,1833.8h-8.1v5.4h3v-2.7h0.9l1.4,2.7h3.1l-1.8-3.3C247,1836,248.1,1835.4,248.4,1833.8z"/>
	</g>
	<g>
		<rect x="60.3" y="1669.8" class="st4" width="3" height="2.9"/>
		<rect x="149.4" y="1669.8" class="st4" width="7.4" height="2.9"/>
		<path class="st4" d="M244.9,1669.8h-4.6v2.9h8.1C248.2,1671,246.8,1669.8,244.9,1669.8z"/>
		<rect x="60.3" y="1725.1" class="st4" width="3" height="5.4"/>
		<polygon class="st4" points="149.4,1730.5 156.9,1730.5 156.9,1728 152.4,1728 152.4,1726.9 155.7,1726.9 155.7,1725.1 
			149.4,1725.1 		"/>
		<path class="st4" d="M248.4,1725.1h-8.1v5.4h3v-2.7h0.9l1.4,2.7h3.1l-1.8-3.3C247,1727.2,248.1,1726.7,248.4,1725.1z"/>
	</g>
</g>
<g class="st3">
	<g>
		<path class="st4" d="M979.7,136.8h-4.4v2.9h8C983.1,138,981.7,136.8,979.7,136.8z"/>
		<path class="st4" d="M1071,136.8h-4.6v2.9h8.1C1074.3,138,1073,136.8,1071,136.8z"/>
		<rect x="1158.2" y="136.8" class="st4" width="7.4" height="2.9"/>
		<polygon class="st4" points="1250.8,136.8 1248.1,136.8 1248.1,139.7 1253,139.7 		"/>
		<polygon class="st4" points="1258.6,136.8 1256,136.8 1253.7,139.7 1258.6,139.7 		"/>
		<rect x="1343.2" y="136.8" class="st4" width="3" height="2.9"/>
		<rect x="1432.3" y="136.8" class="st4" width="7.4" height="2.9"/>
		<path class="st4" d="M1527.8,136.8h-4.6v2.9h8.1C1531.1,138,1529.7,136.8,1527.8,136.8z"/>
		<path class="st4" d="M975.3,197.5h3V195h1.4c2,0,3.3-1.2,3.6-2.9h-8V197.5z"/>
		<path class="st4" d="M1066.4,197.5h3v-2.7h0.9l1.4,2.7h3.1l-1.8-3.3c0,0,1.2-0.6,1.4-2.2h-8.1L1066.4,197.5z"/>
		<polygon class="st4" points="1158.2,197.5 1165.8,197.5 1165.8,195 1161.2,195 1161.2,193.9 1164.6,193.9 1164.6,192 1158.2,192 
					"/>
		<polygon class="st4" points="1248.1,197.5 1251.1,197.5 1251.1,192.5 1253.4,195.3 1255.6,192.5 1255.6,197.5 1258.6,197.5 
			1258.6,192 1248.1,192 		"/>
		<rect x="1343.2" y="192" class="st4" width="3" height="5.4"/>
		<polygon class="st4" points="1432.3,197.5 1439.8,197.5 1439.8,195 1435.3,195 1435.3,193.9 1438.6,193.9 1438.6,192 1432.3,192 
					"/>
		<path class="st4" d="M1531.3,192h-8.1v5.4h3v-2.7h0.9l1.4,2.7h3.1l-1.8-3.3C1529.9,194.2,1531,193.6,1531.3,192z"/>
	</g>
	<g>
		<path class="st4" d="M979.7,28h-4.4v2.9h8C983.1,29.2,981.7,28,979.7,28z"/>
		<path class="st4" d="M1071,28h-4.6v2.9h8.1C1074.3,29.2,1073,28,1071,28z"/>
		<rect x="1158.2" y="28" class="st4" width="7.4" height="2.9"/>
		<polygon class="st4" points="1250.8,28 1248.1,28 1248.1,30.9 1253,30.9 		"/>
		<polygon class="st4" points="1258.6,28 1256,28 1253.7,30.9 1258.6,30.9 		"/>
		<rect x="1343.2" y="28" class="st4" width="3" height="2.9"/>
		<rect x="1432.3" y="28" class="st4" width="7.4" height="2.9"/>
		<path class="st4" d="M1527.8,28h-4.6v2.9h8.1C1531.1,29.3,1529.7,28,1527.8,28z"/>
		<path class="st4" d="M975.3,88.7h3v-2.5h1.4c2,0,3.3-1.2,3.6-2.9h-8V88.7z"/>
		<path class="st4" d="M1066.4,88.7h3V86h0.9l1.4,2.7h3.1l-1.8-3.3c0,0,1.2-0.6,1.4-2.2h-8.1L1066.4,88.7z"/>
		<polygon class="st4" points="1158.2,88.7 1165.8,88.7 1165.8,86.3 1161.2,86.3 1161.2,85.1 1164.6,85.1 1164.6,83.3 1158.2,83.3 
					"/>
		<polygon class="st4" points="1248.1,88.7 1251.1,88.7 1251.1,83.7 1253.4,86.6 1255.6,83.7 1255.6,88.7 1258.6,88.7 1258.6,83.3 
			1248.1,83.3 		"/>
		<rect x="1343.2" y="83.3" class="st4" width="3" height="5.4"/>
		<polygon class="st4" points="1432.3,88.7 1439.8,88.7 1439.8,86.3 1435.3,86.3 1435.3,85.1 1438.6,85.1 1438.6,83.3 1432.3,83.3 
					"/>
		<path class="st4" d="M1531.3,83.3h-8.1v5.4h3V86h0.9l1.4,2.7h3.1l-1.8-3.3C1529.9,85.5,1531,84.9,1531.3,83.3z"/>
	</g>
</g>
<g>
	<g>
		<path class="st0" d="M118.2,4442.4h-4.4v2.9h8C121.5,4443.6,120.2,4442.4,118.2,4442.4z"/>
		<path class="st0" d="M209.5,4442.4h-4.6v2.9h8.1C212.8,4443.6,211.4,4442.4,209.5,4442.4z"/>
		<rect x="296.7" y="4442.4" class="st0" width="7.4" height="2.9"/>
	</g>
	<g>
		<path class="st0" d="M118.2,4333.6h-4.4v2.9h8C121.5,4334.8,120.2,4333.6,118.2,4333.6z"/>
		<path class="st0" d="M209.5,4333.6h-4.6v2.9h8.1C212.8,4334.9,211.4,4333.6,209.5,4333.6z"/>
		<rect x="296.7" y="4333.6" class="st0" width="7.4" height="2.9"/>
		<path class="st0" d="M113.8,4394.3h3v-2.5h1.4c2,0,3.3-1.2,3.6-2.9h-8V4394.3z"/>
		<path class="st0" d="M204.9,4394.3h3v-2.7h0.9l1.4,2.7h3.1l-1.8-3.3c0,0,1.2-0.6,1.4-2.2h-8.1L204.9,4394.3z"/>
		<polygon class="st0" points="296.7,4394.3 304.2,4394.3 304.2,4391.9 299.7,4391.9 299.7,4390.7 303,4390.7 303,4388.9 
			296.7,4388.9 		"/>
	</g>
	<g>
		<path class="st0" d="M118.2,4224.9h-4.4v2.9h8C121.5,4226.1,120.2,4224.9,118.2,4224.9z"/>
		<path class="st0" d="M209.5,4224.9h-4.6v2.9h8.1C212.8,4226.1,211.4,4224.9,209.5,4224.9z"/>
		<rect x="296.7" y="4224.9" class="st0" width="7.4" height="2.9"/>
		<path class="st0" d="M113.8,4285.6h3v-2.5h1.4c2,0,3.3-1.2,3.6-2.9h-8V4285.6z"/>
		<path class="st0" d="M204.9,4285.6h3v-2.7h0.9l1.4,2.7h3.1l-1.8-3.3c0,0,1.2-0.6,1.4-2.2h-8.1L204.9,4285.6z"/>
		<polygon class="st0" points="296.7,4285.6 304.2,4285.6 304.2,4283.1 299.7,4283.1 299.7,4282 303,4282 303,4280.2 296.7,4280.2 
					"/>
	</g>
	<g>
		<path class="st0" d="M118.2,4116.1h-4.4v2.9h8C121.5,4117.3,120.2,4116.1,118.2,4116.1z"/>
		<path class="st0" d="M209.5,4116.1h-4.6v2.9h8.1C212.8,4117.4,211.4,4116.1,209.5,4116.1z"/>
		<rect x="296.7" y="4116.1" class="st0" width="7.4" height="2.9"/>
		<path class="st0" d="M113.8,4176.8h3v-2.5h1.4c2,0,3.3-1.2,3.6-2.9h-8V4176.8z"/>
		<path class="st0" d="M204.9,4176.8h3v-2.7h0.9l1.4,2.7h3.1l-1.8-3.3c0,0,1.2-0.6,1.4-2.2h-8.1L204.9,4176.8z"/>
		<polygon class="st0" points="296.7,4176.8 304.2,4176.8 304.2,4174.4 299.7,4174.4 299.7,4173.2 303,4173.2 303,4171.4 
			296.7,4171.4 		"/>
	</g>
</g>
<g>
	<g>
		<defs>
			<rect id="SVGID_3_" x="1693.1" y="5572.5" width="140.7" height="647.2"/>
		</defs>
		<clipPath id="SVGID_4_">
			<use xlink:href="#SVGID_3_"  style="overflow:visible;"/>
		</clipPath>
		<g class="st5">
			<polygon class="st0" points="2056.1,6219.7 2060.3,6206.1 2052.3,6219.7 			"/>
			<path class="st0" d="M2023.2,6178.1l-12.7,41.6h27.8l42.6-73.6l12.6-21.7l-12.3,40.1l-16.9,55.1h12.1l69.9-225.5l-42.5,71.6
				l-55,92.5l-10.1,17.1l9.9-31.9l54.6-175.8l47.5-152.9l-47.6,79.7l-54.8,91.6l-3.7,6.3l3.7-11.8l108.1-348L2045.8,5824l-4,6.8
				l3.9-12.7l53.5-175.5l20.7-67.9H2097l0,0l-55.8,96.5l-10.3,17.8l10-32.8l24.9-81.5h-13.3l-80.5,259.5l44.7-75.2l54.9-92.1
				l7.5-12.5l-7.3,23.4l-54.7,175.8l-50.9,163.3l105.9-177.8c0.2-0.3,0.3-0.4,0.4-0.2l0,0l0,0c0,0.3-0.1,0.9-0.3,1.7l-103.6,339
				l52.2-90.8l55.9-97l7.3-12.6l-7.1,23.3L2023.2,6178.1z"/>
			<path class="st0" d="M2054.5,5967.7l52.2-90.8l55.9-97l3.6-6.2v-53.1l-31.9,53.4l-3.7,6.3l3.7-11.8l32-103.1v-90.7h-13
				l-21.6,37.3l-4,6.8l3.9-12.7l9.6-31.5H2124l-20.8,66.9l-50.9,163.3l105.9-177.8c0.2-0.3,0.3-0.4,0.4-0.2l0,0l0,0
				c0,0.3-0.1,0.9-0.3,1.7L2054.5,5967.7z"/>
			<polygon class="st0" points="2149,5574.6 2143.8,5574.6 2138.1,5592.9 			"/>
			<polygon class="st0" points="2166.1,6034.3 2166.1,6024.2 2159.6,6045.6 			"/>
			<polygon class="st0" points="2166.1,5711 2166.1,5671.6 2140.4,5755.8 			"/>
			<path class="st0" d="M1931.2,6065.4l-48.1,154.3h2.6l100.5-168.8c0.2-0.3,0.3-0.4,0.4-0.2l0,0l0,0c0,0.3-0.1,0.9-0.3,1.7
				l-51.1,167.2h46.4l9.2-15.9l7.3-12.6l-7.1,23.3l-1.6,5.2h15.4l12.5-40.2l47.5-152.9l-47.6,79.7l-54.8,91.6l-3.7,6.3l3.7-11.8
				l108.1-348l-110.6,191.5l-4,6.8l3.9-12.7l53.5-175.5l46.3-151.7l-48.4,83.9l-55.8,96.5l-10.3,17.8l10-32.8l89.8-293.4h-4.8
				l-88.7,152.7l-14.6,25.2l14.3-46.7l40.2-131.3h-10.6l-51.1,165.1l-40.2,129.6l95.5-161.2l12.7-21.4l-12.4,40l-99.1,319.3
				l44.7-75.2l54.9-92.1l7.5-12.5l-7.3,23.4L1931.2,6065.4z"/>
			<polygon class="st0" points="2166.1,5871.8 2166.1,5848.8 2151.3,5897.5 			"/>
			<path class="st0" d="M1803.6,5574.6v0.2V5574.6z"/>
			<polygon class="st0" points="1719.9,6219.7 1730.6,6219.7 1747.1,6166.1 1785.1,6042.2 1693.2,6199.9 1693.2,6219.7 
				1699.9,6219.7 1725.7,6175.9 1742,6148.4 1726.1,6199.8 			"/>
			<polygon class="st0" points="1693.2,5799 1693.2,5823.7 1770,5574.6 1768.4,5574.6 1693.2,5702.6 1693.2,5726.8 1719.6,5681.9 
				1740.2,5646.6 1720,5712.1 			"/>
			<polygon class="st0" points="1693.2,5969 1693.2,5995.3 1774.9,5729.8 1693.2,5869.3 1693.2,5893.9 1721.9,5845.1 1742.1,5810.7 
				1722.4,5874.6 			"/>
			<polygon class="st0" points="1757.7,6163.6 1740.3,6219.7 1761.1,6219.7 1813,6132 1825.7,6110.5 1813.3,6150.6 1791.9,6219.7 
				1805.2,6219.7 1878.3,5981 1779.5,6151.2 1764.9,6176.4 1779.2,6129.8 1833,5954.2 1871,5830.3 1776,5993.5 1758.3,6023.9 
				1775.6,5967.6 1865.2,5675.9 1772.9,5834 1753.2,5867.6 1772.4,5805.3 1843.4,5574.6 1827.6,5574.6 1770,5673 1749.5,5708.1 
				1769.6,5643 1790.6,5574.6 1783,5574.6 1717.6,5786.7 1807.8,5633.1 1828,5598.8 1808.3,5662.7 1719,5952.2 1809.9,5797.7 
				1828.7,5765.8 1810.4,5825.2 1718.9,6120.9 1811.7,5964 1827.9,5936.5 1812,5987.9 			"/>
			<polygon class="st0" points="1812,6219.7 1822.9,6219.7 1844.9,6182.7 1899.8,6090.6 1907.3,6078.1 1900,6101.5 1863.2,6219.7 
				1880.5,6219.7 1927.3,6066.3 1973.6,5914.6 1925.1,5998.5 1869.3,6095 1859,6112.7 1869.1,6079.9 1964.2,5769.1 1865.4,5939.3 
				1850.8,5964.5 1865.1,5917.8 1918.9,5742.2 1956.9,5618.4 1861.9,5781.6 1844.2,5811.9 1861.5,5755.7 1917.1,5574.6 
				1908.2,5574.6 1896.3,5613.3 1804.9,5909 1897.6,5752.1 1913.8,5724.6 1897.9,5775.9 1843.6,5951.7 1803.4,6081.3 1899,5920.1 
				1911.7,5898.6 1899.2,5938.7 			"/>
			<polygon class="st0" points="1693.2,6138.1 1693.2,6167.9 1779.2,5887.8 1693.2,6035.1 1693.2,6061.9 1724,6009.6 1742.8,5977.7 
				1724.4,6037.1 			"/>
			<polygon class="st0" points="1895.8,5585.8 1902.4,5574.6 1886.5,5574.6 1858.8,5622.1 1839.2,5655.7 1858.3,5593.4 
				1864.1,5574.6 1856,5574.6 1804.9,5740.3 			"/>
			<polygon class="st0" points="1744.1,5574.6 1730.4,5574.6 1715.1,5624.2 			"/>
			<polygon class="st0" points="1963.1,5574.6 1944.9,5574.6 1930.1,5600 1937.9,5574.6 1928.6,5574.6 1890.8,5697.1 			"/>
			<polygon class="st0" points="1839.2,6210.4 1833.8,6219.7 1859.2,6219.7 1887.7,6126.5 			"/>
			<polygon class="st0" points="1776.8,6219.7 1784.2,6219.7 1792.4,6192.9 			"/>
			<polygon class="st0" points="1693.2,6099.9 1693.2,6100 1693.3,6099.7 			"/>
			<polygon class="st0" points="1717.5,5574.6 1709.7,5574.6 1693.2,5628 1693.2,5653.2 			"/>
			<polygon class="st0" points="1890,6219.7 1933.7,6219.7 1984.4,6056.2 			"/>
			<polygon class="st0" points="2086.2,5574.6 2072.7,5574.6 2057.9,5622.2 			"/>
			<polygon class="st0" points="2148.5,6219.7 2166.1,6162.6 2166.1,6130.2 2138.7,6219.7 			"/>
			<polygon class="st0" points="2128.1,6219.7 2143.9,6168.7 2113.7,6219.7 			"/>
			<polygon class="st0" points="2065.3,6109.4 2111,6030.5 2166.1,5935.3 2166.1,5893.4 2134.7,5946.3 2124.6,5963.4 2134.5,5931.5 
				2166.1,5829.5 2166.1,5779.5 2162.7,5790.6 2109.1,5966.2 			"/>
			<polygon class="st0" points="2024.3,5574.6 2000.9,5574.6 1975.2,5657.5 			"/>
			<polygon class="st0" points="2095.6,6219.7 2166.1,6098.4 2166.1,6064.3 2135.8,6115.6 2121.2,6140.2 2135.5,6094.2 
				2166.1,5995.3 2166.1,5955.7 2085.3,6219.7 			"/>
		</g>
	</g>
</g>
<g>
	<polygon class="st0" points="184.1,4832.5 143.4,4832.5 143.4,4876.7 218.6,4876.7 	"/>
	<polygon class="st0" points="304.2,4832.5 263.5,4832.5 229,4876.7 304.2,4876.7 	"/>
</g>
<g>
	<g>
		<defs>
			<rect id="SVGID_5_" x="1479.4" y="1612.8" width="379.8" height="133.6"/>
		</defs>
		<clipPath id="SVGID_6_">
			<use xlink:href="#SVGID_5_"  style="overflow:visible;"/>
		</clipPath>
		<g class="st6">
			<polygon class="st1" points="1465.4,1691.4 1465.4,1705.2 1506.9,1675.7 			"/>
			<polygon class="st1" points="1477.9,1626.1 1500.1,1610.3 1465.4,1610.3 1465.4,1666.1 1602.7,1612.5 1608.5,1610.3 
				1519.5,1610.3 1518.7,1610.6 			"/>
			<polygon class="st1" points="1693.2,1610.3 1681.6,1618.7 1521.1,1733.7 1828.5,1614.3 1838.7,1610.3 1765.6,1610.3 
				1733.4,1622.6 1681.1,1642.5 1726.4,1610.3 			"/>
			<polygon class="st1" points="1889.5,1610.3 1860.2,1610.3 1812.8,1644.3 1518.8,1854.9 1590.3,1854.9 1733.2,1799.6 
				1796.6,1775.1 1715.8,1832.9 1685.1,1854.9 1710.5,1854.9 1924,1702.5 1630.8,1814.8 1570.1,1838 1647.5,1782.9 			"/>
			<polygon class="st1" points="1925.6,1610.3 1754,1733.2 2052.4,1617.7 2071.6,1610.3 2009,1610.3 1949.9,1632.9 1889.3,1656.1 
				1953.6,1610.3 			"/>
			<polygon class="st1" points="2078.9,1637.9 2078.9,1619.6 2035,1651 1750.1,1854.9 1825.1,1854.9 1955.5,1804.6 2021.8,1779 
				1937.2,1839.5 1915.6,1854.9 1939.5,1854.9 2078.9,1755.4 2078.9,1735.1 1849.2,1823.4 1784.1,1848.4 1867.1,1789.1 			"/>
			<polygon class="st1" points="2078.9,1698.3 2078.9,1666.2 1981.4,1735.9 			"/>
			<polygon class="st1" points="1662.4,1610.3 1627.5,1610.3 1589.7,1637.4 1465.4,1726.6 1465.4,1750.7 1657.3,1613.9 			"/>
			<polygon class="st1" points="2005.8,1854.9 2062.1,1854.9 2078.9,1848.5 2078.9,1826.8 2069.1,1830.6 			"/>
			<polygon class="st1" points="1465.4,1785 1465.4,1813.2 1509.3,1796.2 1566.6,1773.9 1493.6,1826.2 1465.4,1846.4 1465.4,1854.9 
				1482.3,1854.9 1712.8,1690.6 			"/>
			<polygon class="st1" points="2078.9,1784.5 1980.4,1854.9 2004.2,1854.9 2078.9,1801.6 			"/>
		</g>
	</g>
</g>
<g class="st3">
	<g>
		<path class="st4" d="M957.3,2157.6h-4.4v2.9h8C960.7,2158.9,959.3,2157.6,957.3,2157.6z"/>
		<path class="st4" d="M1048.6,2157.6h-4.6v2.9h8.1C1051.9,2158.9,1050.6,2157.6,1048.6,2157.6z"/>
		<rect x="1135.8" y="2157.6" class="st4" width="7.4" height="2.9"/>
		<polygon class="st4" points="1228.3,2157.6 1225.7,2157.6 1225.7,2160.5 1230.6,2160.5 		"/>
		<polygon class="st4" points="1236.2,2157.6 1233.6,2157.6 1231.3,2160.5 1236.2,2160.5 		"/>
		<rect x="1320.8" y="2157.6" class="st4" width="3" height="2.9"/>
		<rect x="1409.9" y="2157.6" class="st4" width="7.4" height="2.9"/>
		<path class="st4" d="M1505.4,2157.6h-4.6v2.9h8.1C1508.7,2158.9,1507.3,2157.6,1505.4,2157.6z"/>
		<path class="st4" d="M952.9,2218.4h3v-2.5h1.4c2,0,3.3-1.2,3.6-2.9h-8V2218.4z"/>
		<path class="st4" d="M1044,2218.4h3v-2.7h0.9l1.4,2.7h3.1l-1.8-3.3c0,0,1.2-0.6,1.4-2.2h-8.1L1044,2218.4z"/>
		<polygon class="st4" points="1135.8,2218.4 1143.4,2218.4 1143.4,2215.9 1138.8,2215.9 1138.8,2214.7 1142.2,2214.7 
			1142.2,2212.9 1135.8,2212.9 		"/>
		<polygon class="st4" points="1225.7,2218.4 1228.7,2218.4 1228.7,2213.3 1230.9,2216.2 1233.2,2213.3 1233.2,2218.4 
			1236.2,2218.4 1236.2,2212.9 1225.7,2212.9 		"/>
		<rect x="1320.8" y="2212.9" class="st4" width="3" height="5.4"/>
		<polygon class="st4" points="1409.9,2218.4 1417.4,2218.4 1417.4,2215.9 1412.9,2215.9 1412.9,2214.7 1416.2,2214.7 
			1416.2,2212.9 1409.9,2212.9 		"/>
		<path class="st4" d="M1508.9,2212.9h-8.1v5.4h3v-2.7h0.9l1.4,2.7h3.1l-1.8-3.3C1507.4,2215.1,1508.6,2214.5,1508.9,2212.9z"/>
	</g>
	<g>
		<path class="st4" d="M957.3,2048.9h-4.4v2.9h8C960.7,2050.1,959.3,2048.9,957.3,2048.9z"/>
		<path class="st4" d="M1048.6,2048.9h-4.6v2.9h8.1C1051.9,2050.1,1050.6,2048.9,1048.6,2048.9z"/>
		<rect x="1135.8" y="2048.9" class="st4" width="7.4" height="2.9"/>
		<polygon class="st4" points="1228.3,2048.9 1225.7,2048.9 1225.7,2051.8 1230.6,2051.8 		"/>
		<polygon class="st4" points="1236.2,2048.9 1233.6,2048.9 1231.3,2051.8 1236.2,2051.8 		"/>
		<rect x="1320.8" y="2048.9" class="st4" width="3" height="2.9"/>
		<rect x="1409.9" y="2048.9" class="st4" width="7.4" height="2.9"/>
		<path class="st4" d="M1505.4,2048.9h-4.6v2.9h8.1C1508.7,2050.1,1507.3,2048.9,1505.4,2048.9z"/>
		<path class="st4" d="M952.9,2109.6h3v-2.5h1.4c2,0,3.3-1.2,3.6-2.9h-8V2109.6z"/>
		<path class="st4" d="M1044,2109.6h3v-2.7h0.9l1.4,2.7h3.1l-1.8-3.3c0,0,1.2-0.6,1.4-2.2h-8.1L1044,2109.6z"/>
		<polygon class="st4" points="1135.8,2109.6 1143.4,2109.6 1143.4,2107.1 1138.8,2107.1 1138.8,2106 1142.2,2106 1142.2,2104.2 
			1135.8,2104.2 		"/>
		<polygon class="st4" points="1225.7,2109.6 1228.7,2109.6 1228.7,2104.6 1230.9,2107.5 1233.2,2104.6 1233.2,2109.6 
			1236.2,2109.6 1236.2,2104.2 1225.7,2104.2 		"/>
		<rect x="1320.8" y="2104.2" class="st4" width="3" height="5.4"/>
		<polygon class="st4" points="1409.9,2109.6 1417.4,2109.6 1417.4,2107.1 1412.9,2107.1 1412.9,2106 1416.2,2106 1416.2,2104.2 
			1409.9,2104.2 		"/>
		<path class="st4" d="M1508.9,2104.2h-8.1v5.4h3v-2.7h0.9l1.4,2.7h3.1l-1.8-3.3C1507.4,2106.3,1508.6,2105.7,1508.9,2104.2z"/>
	</g>
	<g>
		<path class="st4" d="M957.3,1940.1h-4.4v2.9h8C960.7,1941.4,959.3,1940.1,957.3,1940.1z"/>
		<path class="st4" d="M1048.6,1940.1h-4.6v2.9h8.1C1051.9,1941.4,1050.6,1940.1,1048.6,1940.1z"/>
		<rect x="1135.8" y="1940.1" class="st4" width="7.4" height="2.9"/>
		<polygon class="st4" points="1228.3,1940.1 1225.7,1940.1 1225.7,1943 1230.6,1943 		"/>
		<polygon class="st4" points="1236.2,1940.1 1233.6,1940.1 1231.3,1943 1236.2,1943 		"/>
		<rect x="1320.8" y="1940.1" class="st4" width="3" height="2.9"/>
		<rect x="1409.9" y="1940.1" class="st4" width="7.4" height="2.9"/>
		<path class="st4" d="M1505.4,1940.1h-4.6v2.9h8.1C1508.7,1941.4,1507.3,1940.1,1505.4,1940.1z"/>
		<path class="st4" d="M952.9,2000.9h3v-2.5h1.4c2,0,3.3-1.2,3.6-2.9h-8V2000.9z"/>
		<path class="st4" d="M1044,2000.9h3v-2.7h0.9l1.4,2.7h3.1l-1.8-3.3c0,0,1.2-0.6,1.4-2.2h-8.1L1044,2000.9z"/>
		<polygon class="st4" points="1135.8,2000.9 1143.4,2000.9 1143.4,1998.4 1138.8,1998.4 1138.8,1997.2 1142.2,1997.2 
			1142.2,1995.4 1135.8,1995.4 		"/>
		<polygon class="st4" points="1225.7,2000.9 1228.7,2000.9 1228.7,1995.8 1230.9,1998.7 1233.2,1995.8 1233.2,2000.9 
			1236.2,2000.9 1236.2,1995.4 1225.7,1995.4 		"/>
		<rect x="1320.8" y="1995.4" class="st4" width="3" height="5.4"/>
		<polygon class="st4" points="1409.9,2000.9 1417.4,2000.9 1417.4,1998.4 1412.9,1998.4 1412.9,1997.2 1416.2,1997.2 
			1416.2,1995.4 1409.9,1995.4 		"/>
		<path class="st4" d="M1508.9,1995.4h-8.1v5.4h3v-2.7h0.9l1.4,2.7h3.1l-1.8-3.3C1507.4,1997.6,1508.6,1997,1508.9,1995.4z"/>
	</g>
	<g>
		<path class="st4" d="M957.3,1831.4h-4.4v2.9h8C960.7,1832.6,959.3,1831.4,957.3,1831.4z"/>
		<path class="st4" d="M1048.6,1831.4h-4.6v2.9h8.1C1051.9,1832.6,1050.6,1831.4,1048.6,1831.4z"/>
		<rect x="1135.8" y="1831.4" class="st4" width="7.4" height="2.9"/>
		<polygon class="st4" points="1228.3,1831.4 1225.7,1831.4 1225.7,1834.3 1230.6,1834.3 		"/>
		<polygon class="st4" points="1236.2,1831.4 1233.6,1831.4 1231.3,1834.3 1236.2,1834.3 		"/>
		<rect x="1320.8" y="1831.4" class="st4" width="3" height="2.9"/>
		<rect x="1409.9" y="1831.4" class="st4" width="7.4" height="2.9"/>
		<path class="st4" d="M1505.4,1831.4h-4.6v2.9h8.1C1508.7,1832.6,1507.3,1831.4,1505.4,1831.4z"/>
		<path class="st4" d="M952.9,1892.1h3v-2.5h1.4c2,0,3.3-1.2,3.6-2.9h-8V1892.1z"/>
		<path class="st4" d="M1044,1892.1h3v-2.7h0.9l1.4,2.7h3.1l-1.8-3.3c0,0,1.2-0.6,1.4-2.2h-8.1L1044,1892.1z"/>
		<polygon class="st4" points="1135.8,1892.1 1143.4,1892.1 1143.4,1889.6 1138.8,1889.6 1138.8,1888.5 1142.2,1888.5 
			1142.2,1886.7 1135.8,1886.7 		"/>
		<polygon class="st4" points="1225.7,1892.1 1228.7,1892.1 1228.7,1887.1 1230.9,1890 1233.2,1887.1 1233.2,1892.1 1236.2,1892.1 
			1236.2,1886.7 1225.7,1886.7 		"/>
		<rect x="1320.8" y="1886.7" class="st4" width="3" height="5.4"/>
		<polygon class="st4" points="1409.9,1892.1 1417.4,1892.1 1417.4,1889.6 1412.9,1889.6 1412.9,1888.5 1416.2,1888.5 
			1416.2,1886.7 1409.9,1886.7 		"/>
		<path class="st4" d="M1508.9,1886.7h-8.1v5.4h3v-2.7h0.9l1.4,2.7h3.1l-1.8-3.3C1507.4,1888.8,1508.6,1888.2,1508.9,1886.7z"/>
	</g>
	<g>
		<path class="st4" d="M957.3,1722.6h-4.4v2.9h8C960.7,1723.9,959.3,1722.6,957.3,1722.6z"/>
		<path class="st4" d="M1048.6,1722.6h-4.6v2.9h8.1C1051.9,1723.9,1050.6,1722.6,1048.6,1722.6z"/>
		<rect x="1135.8" y="1722.6" class="st4" width="7.4" height="2.9"/>
		<polygon class="st4" points="1228.3,1722.6 1225.7,1722.6 1225.7,1725.5 1230.6,1725.5 		"/>
		<polygon class="st4" points="1236.2,1722.6 1233.6,1722.6 1231.3,1725.5 1236.2,1725.5 		"/>
		<rect x="1320.8" y="1722.6" class="st4" width="3" height="2.9"/>
		<rect x="1409.9" y="1722.6" class="st4" width="7.4" height="2.9"/>
		<path class="st4" d="M1505.4,1722.6h-4.6v2.9h8.1C1508.7,1723.9,1507.3,1722.6,1505.4,1722.6z"/>
		<path class="st4" d="M952.9,1783.4h3v-2.5h1.4c2,0,3.3-1.2,3.6-2.9h-8V1783.4z"/>
		<path class="st4" d="M1044,1783.4h3v-2.7h0.9l1.4,2.7h3.1l-1.8-3.3c0,0,1.2-0.6,1.4-2.2h-8.1L1044,1783.4z"/>
		<polygon class="st4" points="1135.8,1783.4 1143.4,1783.4 1143.4,1780.9 1138.8,1780.9 1138.8,1779.7 1142.2,1779.7 
			1142.2,1777.9 1135.8,1777.9 		"/>
		<polygon class="st4" points="1225.7,1783.4 1228.7,1783.4 1228.7,1778.3 1230.9,1781.2 1233.2,1778.3 1233.2,1783.4 
			1236.2,1783.4 1236.2,1777.9 1225.7,1777.9 		"/>
		<rect x="1320.8" y="1777.9" class="st4" width="3" height="5.4"/>
		<polygon class="st4" points="1409.9,1783.4 1417.4,1783.4 1417.4,1780.9 1412.9,1780.9 1412.9,1779.7 1416.2,1779.7 
			1416.2,1777.9 1409.9,1777.9 		"/>
		<path class="st4" d="M1508.9,1777.9h-8.1v5.4h3v-2.7h0.9l1.4,2.7h3.1l-1.8-3.3C1507.4,1780.1,1508.6,1779.5,1508.9,1777.9z"/>
	</g>
</g>
<g class="st3">
	<g>
		<path class="st4" d="M248.1,3115.7h-4.4v2.9h8C251.4,3116.9,250.1,3115.7,248.1,3115.7z"/>
		<path class="st4" d="M339.4,3115.7h-4.6v2.9h8.1C342.7,3116.9,341.4,3115.7,339.4,3115.7z"/>
		<rect x="426.6" y="3115.7" class="st4" width="7.4" height="2.9"/>
		<polygon class="st4" points="519.1,3115.7 516.4,3115.7 516.4,3118.6 521.4,3118.6 		"/>
		<polygon class="st4" points="527,3115.7 524.3,3115.7 522.1,3118.6 527,3118.6 		"/>
		<path class="st4" d="M243.7,3176.4h3v-2.5h1.4c2,0,3.3-1.2,3.6-2.9h-8V3176.4z"/>
		<path class="st4" d="M334.8,3176.4h3v-2.7h0.9l1.4,2.7h3.1l-1.8-3.3c0,0,1.2-0.6,1.4-2.2h-8.1L334.8,3176.4z"/>
		<polygon class="st4" points="426.6,3176.4 434.2,3176.4 434.2,3173.9 429.6,3173.9 429.6,3172.8 433,3172.8 433,3171 426.6,3171 
					"/>
		<polygon class="st4" points="516.4,3176.4 519.5,3176.4 519.5,3171.4 521.7,3174.3 524,3171.4 524,3176.4 527,3176.4 527,3171 
			516.4,3171 		"/>
	</g>
	<g>
		<path class="st4" d="M248.1,3006.9h-4.4v2.9h8C251.4,3008.1,250.1,3006.9,248.1,3006.9z"/>
		<path class="st4" d="M339.4,3006.9h-4.6v2.9h8.1C342.7,3008.2,341.4,3006.9,339.4,3006.9z"/>
		<rect x="426.6" y="3006.9" class="st4" width="7.4" height="2.9"/>
		<polygon class="st4" points="519.1,3006.9 516.4,3006.9 516.4,3009.8 521.4,3009.8 		"/>
		<polygon class="st4" points="527,3006.9 524.3,3006.9 522.1,3009.8 527,3009.8 		"/>
		<path class="st4" d="M243.7,3067.6h3v-2.5h1.4c2,0,3.3-1.2,3.6-2.9h-8V3067.6z"/>
		<path class="st4" d="M334.8,3067.6h3v-2.7h0.9l1.4,2.7h3.1l-1.8-3.3c0,0,1.2-0.6,1.4-2.2h-8.1L334.8,3067.6z"/>
		<polygon class="st4" points="426.6,3067.6 434.2,3067.6 434.2,3065.2 429.6,3065.2 429.6,3064 433,3064 433,3062.2 426.6,3062.2 
					"/>
		<polygon class="st4" points="516.4,3067.6 519.5,3067.6 519.5,3062.6 521.7,3065.5 524,3062.6 524,3067.6 527,3067.6 527,3062.2 
			516.4,3062.2 		"/>
	</g>
	<g>
		<path class="st4" d="M248.1,2898.2h-4.4v2.9h8C251.4,2899.4,250.1,2898.2,248.1,2898.2z"/>
		<path class="st4" d="M339.4,2898.2h-4.6v2.9h8.1C342.7,2899.4,341.4,2898.2,339.4,2898.2z"/>
		<rect x="426.6" y="2898.2" class="st4" width="7.4" height="2.9"/>
		<polygon class="st4" points="519.1,2898.2 516.4,2898.2 516.4,2901.1 521.4,2901.1 		"/>
		<polygon class="st4" points="527,2898.2 524.3,2898.2 522.1,2901.1 527,2901.1 		"/>
		<path class="st4" d="M243.7,2958.9h3v-2.5h1.4c2,0,3.3-1.2,3.6-2.9h-8V2958.9z"/>
		<path class="st4" d="M334.8,2958.9h3v-2.7h0.9l1.4,2.7h3.1l-1.8-3.3c0,0,1.2-0.6,1.4-2.2h-8.1L334.8,2958.9z"/>
		<polygon class="st4" points="426.6,2958.9 434.2,2958.9 434.2,2956.4 429.6,2956.4 429.6,2955.3 433,2955.3 433,2953.5 
			426.6,2953.5 		"/>
		<polygon class="st4" points="516.4,2958.9 519.5,2958.9 519.5,2953.9 521.7,2956.8 524,2953.9 524,2958.9 527,2958.9 527,2953.5 
			516.4,2953.5 		"/>
	</g>
	<g>
		<path class="st4" d="M248.1,2789.4h-4.4v2.9h8C251.4,2790.6,250.1,2789.4,248.1,2789.4z"/>
		<path class="st4" d="M339.4,2789.4h-4.6v2.9h8.1C342.7,2790.7,341.4,2789.4,339.4,2789.4z"/>
		<rect x="426.6" y="2789.4" class="st4" width="7.4" height="2.9"/>
		<polygon class="st4" points="519.1,2789.4 516.4,2789.4 516.4,2792.3 521.4,2792.3 		"/>
		<polygon class="st4" points="527,2789.4 524.3,2789.4 522.1,2792.3 527,2792.3 		"/>
		<path class="st4" d="M243.7,2850.1h3v-2.5h1.4c2,0,3.3-1.2,3.6-2.9h-8V2850.1z"/>
		<path class="st4" d="M334.8,2850.1h3v-2.7h0.9l1.4,2.7h3.1l-1.8-3.3c0,0,1.2-0.6,1.4-2.2h-8.1L334.8,2850.1z"/>
		<polygon class="st4" points="426.6,2850.1 434.2,2850.1 434.2,2847.7 429.6,2847.7 429.6,2846.5 433,2846.5 433,2844.7 
			426.6,2844.7 		"/>
		<polygon class="st4" points="516.4,2850.1 519.5,2850.1 519.5,2845.1 521.7,2848 524,2845.1 524,2850.1 527,2850.1 527,2844.7 
			516.4,2844.7 		"/>
	</g>
	<g>
		<path class="st4" d="M248.1,2680.7h-4.4v2.9h8C251.4,2681.9,250.1,2680.7,248.1,2680.7z"/>
		<path class="st4" d="M339.4,2680.7h-4.6v2.9h8.1C342.7,2681.9,341.4,2680.7,339.4,2680.7z"/>
		<rect x="426.6" y="2680.7" class="st4" width="7.4" height="2.9"/>
		<polygon class="st4" points="519.1,2680.7 516.4,2680.7 516.4,2683.6 521.4,2683.6 		"/>
		<polygon class="st4" points="527,2680.7 524.3,2680.7 522.1,2683.6 527,2683.6 		"/>
		<path class="st4" d="M243.7,2741.4h3v-2.5h1.4c2,0,3.3-1.2,3.6-2.9h-8V2741.4z"/>
		<path class="st4" d="M334.8,2741.4h3v-2.7h0.9l1.4,2.7h3.1l-1.8-3.3c0,0,1.2-0.6,1.4-2.2h-8.1L334.8,2741.4z"/>
		<polygon class="st4" points="426.6,2741.4 434.2,2741.4 434.2,2738.9 429.6,2738.9 429.6,2737.8 433,2737.8 433,2736 426.6,2736 
					"/>
		<polygon class="st4" points="516.4,2741.4 519.5,2741.4 519.5,2736.4 521.7,2739.3 524,2736.4 524,2741.4 527,2741.4 527,2736 
			516.4,2736 		"/>
	</g>
</g>
<path class="st0" d="M1618.6,2095.5h38.2v-32.2h17.8c25.5,0,42.5-15.5,45.3-36.8h-101.3V2095.5z"/>
<g>
	<g>
		<defs>
			<rect id="SVGID_7_" x="1734.9" y="0.5" width="185.1" height="613.4"/>
		</defs>
		<clipPath id="SVGID_8_">
			<use xlink:href="#SVGID_7_"  style="overflow:visible;"/>
		</clipPath>
		<g class="st7">
			<polygon class="st0" points="1898.4,0.5 1884.6,0.5 1914.2,41.9 			"/>
			<polygon class="st0" points="1963.7,12.9 1979.6,35.2 1979.6,0.5 1923.8,0.5 1977.3,137.8 1979.6,143.5 1979.6,54.6 1979.3,53.8 
							"/>
			<polygon class="st0" points="1979.6,228.3 1971.2,216.6 1856.1,56.1 1975.6,363.5 1979.6,373.8 1979.6,300.7 1967.3,268.5 
				1947.3,216.2 1979.6,261.4 			"/>
			<polygon class="st0" points="1979.6,424.5 1979.6,395.3 1945.6,347.8 1734.9,53.9 1734.9,125.4 1790.2,268.3 1814.8,331.7 
				1756.9,250.9 1734.9,220.1 1734.9,245.5 1887.4,459.1 1775,165.8 1751.8,105.2 1807,182.5 			"/>
			<polygon class="st0" points="1979.6,460.6 1856.6,289 1972.1,587.4 1979.6,606.6 1979.6,544 1956.9,485 1933.7,424.3 
				1979.6,488.6 			"/>
			<polygon class="st0" points="1952,613.9 1970.2,613.9 1938.8,570 1734.9,285.1 1734.9,360.2 1785.2,490.5 1810.8,556.8 
				1750.4,472.3 1734.9,450.7 1734.9,474.6 1834.5,613.9 1854.7,613.9 1766.5,384.2 1741.5,319.1 1800.7,402.1 			"/>
			<polygon class="st0" points="1891.6,613.9 1923.7,613.9 1853.9,516.5 			"/>
			<polygon class="st0" points="1979.6,197.5 1979.6,162.6 1952.5,124.8 1863.2,0.5 1839.2,0.5 1975.9,192.4 			"/>
			<polygon class="st0" points="1734.9,540.8 1734.9,597.2 1741.3,613.9 1763.1,613.9 1759.3,604.1 			"/>
			<polygon class="st0" points="1804.9,0.5 1776.6,0.5 1793.7,44.4 1815.9,101.6 1763.7,28.7 1743.4,0.5 1734.9,0.5 1734.9,17.4 
				1899.3,247.8 			"/>
			<polygon class="st0" points="1805.3,613.9 1734.9,515.5 1734.9,539.2 1788.3,613.9 			"/>
		</g>
	</g>
</g>
<g>
	<g>
		<defs>
			<rect id="SVGID_9_" y="3289.5" width="158" height="613.4"/>
		</defs>
		<clipPath id="SVGID_10_">
			<use xlink:href="#SVGID_9_"  style="overflow:visible;"/>
		</clipPath>
		<g class="st8">
			<polygon class="st1" points="76.9,3289.5 63.1,3289.5 92.6,3330.9 			"/>
			<polygon class="st1" points="142.2,3301.9 158,3324.2 158,3289.5 102.2,3289.5 155.8,3426.8 158,3432.5 158,3343.6 157.7,3342.7 
							"/>
			<polygon class="st1" points="158,3517.3 149.7,3505.6 34.6,3345.1 154.1,3652.5 158,3662.8 158,3589.7 145.7,3557.5 
				125.8,3505.1 158,3550.4 			"/>
			<polygon class="st1" points="158,3713.5 158,3684.3 124,3636.8 -86.6,3342.9 -86.6,3414.4 -31.3,3557.3 -6.8,3620.7 
				-64.6,3539.9 -86.6,3509.1 -86.6,3534.5 65.8,3748 -46.5,3454.8 -69.7,3394.2 -14.6,3471.5 			"/>
			<polygon class="st1" points="158,3749.6 35.1,3578 150.6,3876.4 158,3895.6 158,3833 135.4,3774 112.2,3713.3 158,3777.6 			"/>
			<polygon class="st1" points="130.4,3902.9 148.7,3902.9 117.3,3859 -86.6,3574.1 -86.6,3649.2 -36.3,3779.5 -10.7,3845.8 
				-71.2,3761.3 -86.6,3739.7 -86.6,3763.6 12.9,3902.9 33.2,3902.9 -55.1,3673.2 -80.1,3608.1 -20.8,3691.1 			"/>
			<polygon class="st1" points="70,3902.9 102.2,3902.9 32.4,3805.4 			"/>
			<polygon class="st1" points="158,3486.5 158,3451.5 130.9,3413.8 41.7,3289.5 17.6,3289.5 154.4,3481.3 			"/>
			<polygon class="st1" points="-86.6,3829.8 -86.6,3886.2 -80.2,3902.9 -58.4,3902.9 -62.2,3893.1 			"/>
			<polygon class="st1" points="-16.6,3289.5 -44.9,3289.5 -27.9,3333.4 -5.6,3390.6 -57.9,3317.7 -78.1,3289.5 -86.6,3289.5 
				-86.6,3306.4 77.7,3536.8 			"/>
			<polygon class="st1" points="-16.2,3902.9 -86.6,3804.4 -86.6,3828.2 -33.2,3902.9 			"/>
		</g>
	</g>
</g>
<g class="st3">
	<g>
		<path class="st4" d="M1312.8,3640.6h-4.4v2.9h8C1316.2,3641.8,1314.8,3640.6,1312.8,3640.6z"/>
		<path class="st4" d="M1404.1,3640.6h-4.6v2.9h8.1C1407.4,3641.9,1406.1,3640.6,1404.1,3640.6z"/>
		<rect x="1491.3" y="3640.6" class="st4" width="7.4" height="2.9"/>
		<polygon class="st4" points="1583.9,3640.6 1581.2,3640.6 1581.2,3643.5 1586.1,3643.5 		"/>
		<polygon class="st4" points="1591.7,3640.6 1589.1,3640.6 1586.8,3643.5 1591.7,3643.5 		"/>
		<rect x="1676.3" y="3640.6" class="st4" width="3" height="2.9"/>
		<rect x="1765.4" y="3640.6" class="st4" width="7.4" height="2.9"/>
		<path class="st4" d="M1860.9,3640.6h-4.6v2.9h8.1C1864.2,3641.9,1862.8,3640.6,1860.9,3640.6z"/>
		<path class="st4" d="M1308.4,3701.3h3v-2.5h1.4c2,0,3.3-1.2,3.6-2.9h-8V3701.3z"/>
		<path class="st4" d="M1399.5,3701.3h3v-2.7h0.9l1.4,2.7h3.1l-1.8-3.3c0,0,1.2-0.6,1.4-2.2h-8.1L1399.5,3701.3z"/>
		<polygon class="st4" points="1491.3,3701.3 1498.9,3701.3 1498.9,3698.9 1494.3,3698.9 1494.3,3697.7 1497.7,3697.7 
			1497.7,3695.9 1491.3,3695.9 		"/>
		<polygon class="st4" points="1581.2,3701.3 1584.2,3701.3 1584.2,3696.3 1586.5,3699.2 1588.7,3696.3 1588.7,3701.3 
			1591.7,3701.3 1591.7,3695.9 1581.2,3695.9 		"/>
		<rect x="1676.3" y="3695.9" class="st4" width="3" height="5.4"/>
		<polygon class="st4" points="1765.4,3701.3 1772.9,3701.3 1772.9,3698.9 1768.4,3698.9 1768.4,3697.7 1771.7,3697.7 
			1771.7,3695.9 1765.4,3695.9 		"/>
		<path class="st4" d="M1864.4,3695.9h-8.1v5.4h3v-2.7h0.9l1.4,2.7h3.1l-1.8-3.3C1863,3698.1,1864.1,3697.5,1864.4,3695.9z"/>
	</g>
	<g>
		<path class="st4" d="M1312.8,3531.9h-4.4v2.9h8C1316.2,3533.1,1314.8,3531.9,1312.8,3531.9z"/>
		<path class="st4" d="M1404.1,3531.9h-4.6v2.9h8.1C1407.4,3533.1,1406.1,3531.9,1404.1,3531.9z"/>
		<rect x="1491.3" y="3531.9" class="st4" width="7.4" height="2.9"/>
		<polygon class="st4" points="1583.9,3531.9 1581.2,3531.9 1581.2,3534.8 1586.1,3534.8 		"/>
		<polygon class="st4" points="1591.7,3531.9 1589.1,3531.9 1586.8,3534.8 1591.7,3534.8 		"/>
		<rect x="1676.3" y="3531.9" class="st4" width="3" height="2.9"/>
		<rect x="1765.4" y="3531.9" class="st4" width="7.4" height="2.9"/>
		<path class="st4" d="M1860.9,3531.9h-4.6v2.9h8.1C1864.2,3533.1,1862.8,3531.9,1860.9,3531.9z"/>
		<path class="st4" d="M1308.4,3592.6h3v-2.5h1.4c2,0,3.3-1.2,3.6-2.9h-8V3592.6z"/>
		<path class="st4" d="M1399.5,3592.6h3v-2.7h0.9l1.4,2.7h3.1l-1.8-3.3c0,0,1.2-0.6,1.4-2.2h-8.1L1399.5,3592.6z"/>
		<polygon class="st4" points="1491.3,3592.6 1498.9,3592.6 1498.9,3590.1 1494.3,3590.1 1494.3,3589 1497.7,3589 1497.7,3587.2 
			1491.3,3587.2 		"/>
		<polygon class="st4" points="1581.2,3592.6 1584.2,3592.6 1584.2,3587.6 1586.5,3590.5 1588.7,3587.6 1588.7,3592.6 
			1591.7,3592.6 1591.7,3587.2 1581.2,3587.2 		"/>
		<rect x="1676.3" y="3587.2" class="st4" width="3" height="5.4"/>
		<polygon class="st4" points="1765.4,3592.6 1772.9,3592.6 1772.9,3590.1 1768.4,3590.1 1768.4,3589 1771.7,3589 1771.7,3587.2 
			1765.4,3587.2 		"/>
		<path class="st4" d="M1864.4,3587.2h-8.1v5.4h3v-2.7h0.9l1.4,2.7h3.1l-1.8-3.3C1863,3589.3,1864.1,3588.7,1864.4,3587.2z"/>
	</g>
	<g>
		<path class="st4" d="M1312.8,3423.1h-4.4v2.9h8C1316.2,3424.3,1314.8,3423.1,1312.8,3423.1z"/>
		<path class="st4" d="M1404.1,3423.1h-4.6v2.9h8.1C1407.4,3424.4,1406.1,3423.1,1404.1,3423.1z"/>
		<rect x="1491.3" y="3423.1" class="st4" width="7.4" height="2.9"/>
		<polygon class="st4" points="1583.9,3423.1 1581.2,3423.1 1581.2,3426 1586.1,3426 		"/>
		<polygon class="st4" points="1591.7,3423.1 1589.1,3423.1 1586.8,3426 1591.7,3426 		"/>
		<rect x="1676.3" y="3423.1" class="st4" width="3" height="2.9"/>
		<rect x="1765.4" y="3423.1" class="st4" width="7.4" height="2.9"/>
		<path class="st4" d="M1860.9,3423.1h-4.6v2.9h8.1C1864.2,3424.4,1862.8,3423.1,1860.9,3423.1z"/>
		<path class="st4" d="M1308.4,3483.8h3v-2.5h1.4c2,0,3.3-1.2,3.6-2.9h-8V3483.8z"/>
		<path class="st4" d="M1399.5,3483.8h3v-2.7h0.9l1.4,2.7h3.1l-1.8-3.3c0,0,1.2-0.6,1.4-2.2h-8.1L1399.5,3483.8z"/>
		<polygon class="st4" points="1491.3,3483.8 1498.9,3483.8 1498.9,3481.4 1494.3,3481.4 1494.3,3480.2 1497.7,3480.2 
			1497.7,3478.4 1491.3,3478.4 		"/>
		<polygon class="st4" points="1581.2,3483.8 1584.2,3483.8 1584.2,3478.8 1586.5,3481.7 1588.7,3478.8 1588.7,3483.8 
			1591.7,3483.8 1591.7,3478.4 1581.2,3478.4 		"/>
		<rect x="1676.3" y="3478.4" class="st4" width="3" height="5.4"/>
		<polygon class="st4" points="1765.4,3483.8 1772.9,3483.8 1772.9,3481.4 1768.4,3481.4 1768.4,3480.2 1771.7,3480.2 
			1771.7,3478.4 1765.4,3478.4 		"/>
		<path class="st4" d="M1864.4,3478.4h-8.1v5.4h3v-2.7h0.9l1.4,2.7h3.1l-1.8-3.3C1863,3480.6,1864.1,3480,1864.4,3478.4z"/>
	</g>
	<g>
		<path class="st4" d="M1312.8,3314.4h-4.4v2.9h8C1316.2,3315.6,1314.8,3314.4,1312.8,3314.4z"/>
		<path class="st4" d="M1404.1,3314.4h-4.6v2.9h8.1C1407.4,3315.6,1406.1,3314.4,1404.1,3314.4z"/>
		<rect x="1491.3" y="3314.4" class="st4" width="7.4" height="2.9"/>
		<polygon class="st4" points="1583.9,3314.4 1581.2,3314.4 1581.2,3317.3 1586.1,3317.3 		"/>
		<polygon class="st4" points="1591.7,3314.4 1589.1,3314.4 1586.8,3317.3 1591.7,3317.3 		"/>
		<rect x="1676.3" y="3314.4" class="st4" width="3" height="2.9"/>
		<rect x="1765.4" y="3314.4" class="st4" width="7.4" height="2.9"/>
		<path class="st4" d="M1860.9,3314.4h-4.6v2.9h8.1C1864.2,3315.6,1862.8,3314.4,1860.9,3314.4z"/>
		<path class="st4" d="M1308.4,3375.1h3v-2.5h1.4c2,0,3.3-1.2,3.6-2.9h-8V3375.1z"/>
		<path class="st4" d="M1399.5,3375.1h3v-2.7h0.9l1.4,2.7h3.1l-1.8-3.3c0,0,1.2-0.6,1.4-2.2h-8.1L1399.5,3375.1z"/>
		<polygon class="st4" points="1491.3,3375.1 1498.9,3375.1 1498.9,3372.6 1494.3,3372.6 1494.3,3371.5 1497.7,3371.5 
			1497.7,3369.7 1491.3,3369.7 		"/>
		<polygon class="st4" points="1581.2,3375.1 1584.2,3375.1 1584.2,3370.1 1586.5,3373 1588.7,3370.1 1588.7,3375.1 1591.7,3375.1 
			1591.7,3369.7 1581.2,3369.7 		"/>
		<rect x="1676.3" y="3369.7" class="st4" width="3" height="5.4"/>
		<polygon class="st4" points="1765.4,3375.1 1772.9,3375.1 1772.9,3372.6 1768.4,3372.6 1768.4,3371.5 1771.7,3371.5 
			1771.7,3369.7 1765.4,3369.7 		"/>
		<path class="st4" d="M1864.4,3369.7h-8.1v5.4h3v-2.7h0.9l1.4,2.7h3.1l-1.8-3.3C1863,3371.8,1864.1,3371.2,1864.4,3369.7z"/>
	</g>
	<g>
		<path class="st4" d="M1312.8,3205.6h-4.4v2.9h8C1316.2,3206.8,1314.8,3205.6,1312.8,3205.6z"/>
		<path class="st4" d="M1404.1,3205.6h-4.6v2.9h8.1C1407.4,3206.9,1406.1,3205.6,1404.1,3205.6z"/>
		<rect x="1491.3" y="3205.6" class="st4" width="7.4" height="2.9"/>
		<polygon class="st4" points="1583.9,3205.6 1581.2,3205.6 1581.2,3208.5 1586.1,3208.5 		"/>
		<polygon class="st4" points="1591.7,3205.6 1589.1,3205.6 1586.8,3208.5 1591.7,3208.5 		"/>
		<rect x="1676.3" y="3205.6" class="st4" width="3" height="2.9"/>
		<rect x="1765.4" y="3205.6" class="st4" width="7.4" height="2.9"/>
		<path class="st4" d="M1860.9,3205.6h-4.6v2.9h8.1C1864.2,3206.9,1862.8,3205.6,1860.9,3205.6z"/>
		<path class="st4" d="M1308.4,3266.3h3v-2.5h1.4c2,0,3.3-1.2,3.6-2.9h-8V3266.3z"/>
		<path class="st4" d="M1399.5,3266.3h3v-2.7h0.9l1.4,2.7h3.1l-1.8-3.3c0,0,1.2-0.6,1.4-2.2h-8.1L1399.5,3266.3z"/>
		<polygon class="st4" points="1491.3,3266.3 1498.9,3266.3 1498.9,3263.9 1494.3,3263.9 1494.3,3262.7 1497.7,3262.7 
			1497.7,3260.9 1491.3,3260.9 		"/>
		<polygon class="st4" points="1581.2,3266.3 1584.2,3266.3 1584.2,3261.3 1586.5,3264.2 1588.7,3261.3 1588.7,3266.3 
			1591.7,3266.3 1591.7,3260.9 1581.2,3260.9 		"/>
		<rect x="1676.3" y="3260.9" class="st4" width="3" height="5.4"/>
		<polygon class="st4" points="1765.4,3266.3 1772.9,3266.3 1772.9,3263.9 1768.4,3263.9 1768.4,3262.7 1771.7,3262.7 
			1771.7,3260.9 1765.4,3260.9 		"/>
		<path class="st4" d="M1864.4,3260.9h-8.1v5.4h3v-2.7h0.9l1.4,2.7h3.1l-1.8-3.3C1863,3263.1,1864.1,3262.5,1864.4,3260.9z"/>
	</g>
</g>
<g class="st3">
	<g>
		<path class="st4" d="M1124.7,5297.5h-4.4v2.9h8C1128,5298.7,1126.7,5297.5,1124.7,5297.5z"/>
		<path class="st4" d="M1216,5297.5h-4.6v2.9h8.1C1219.3,5298.7,1217.9,5297.5,1216,5297.5z"/>
		<rect x="1303.2" y="5297.5" class="st4" width="7.4" height="2.9"/>
		<polygon class="st4" points="1395.7,5297.5 1393,5297.5 1393,5300.4 1398,5300.4 		"/>
		<polygon class="st4" points="1403.6,5297.5 1400.9,5297.5 1398.6,5300.4 1403.6,5300.4 		"/>
		<rect x="1488.1" y="5297.5" class="st4" width="3" height="2.9"/>
		<rect x="1577.2" y="5297.5" class="st4" width="7.4" height="2.9"/>
		<path class="st4" d="M1672.7,5297.5h-4.6v2.9h8.1C1676,5298.7,1674.7,5297.5,1672.7,5297.5z"/>
		<path class="st4" d="M1120.3,5358.2h3v-2.5h1.4c2,0,3.3-1.2,3.6-2.9h-8V5358.2z"/>
		<path class="st4" d="M1211.4,5358.2h3v-2.7h0.9l1.4,2.7h3.1l-1.8-3.3c0,0,1.2-0.6,1.4-2.2h-8.1L1211.4,5358.2z"/>
		<polygon class="st4" points="1303.2,5358.2 1310.7,5358.2 1310.7,5355.7 1306.2,5355.7 1306.2,5354.6 1309.5,5354.6 
			1309.5,5352.8 1303.2,5352.8 		"/>
		<polygon class="st4" points="1393,5358.2 1396,5358.2 1396,5353.2 1398.3,5356.1 1400.6,5353.2 1400.6,5358.2 1403.6,5358.2 
			1403.6,5352.8 1393,5352.8 		"/>
		<rect x="1488.1" y="5352.8" class="st4" width="3" height="5.4"/>
		<polygon class="st4" points="1577.2,5358.2 1584.8,5358.2 1584.8,5355.7 1580.2,5355.7 1580.2,5354.6 1583.6,5354.6 
			1583.6,5352.8 1577.2,5352.8 		"/>
		<path class="st4" d="M1676.2,5352.8h-8.1v5.4h3v-2.7h0.9l1.4,2.7h3.1l-1.8-3.3C1674.8,5354.9,1676,5354.4,1676.2,5352.8z"/>
	</g>
	<g>
		<path class="st4" d="M1124.7,5188.8h-4.4v2.9h8C1128,5190,1126.7,5188.8,1124.7,5188.8z"/>
		<path class="st4" d="M1216,5188.8h-4.6v2.9h8.1C1219.3,5190,1217.9,5188.7,1216,5188.8z"/>
		<rect x="1303.2" y="5188.8" class="st4" width="7.4" height="2.9"/>
		<polygon class="st4" points="1395.7,5188.8 1393,5188.8 1393,5191.7 1398,5191.7 		"/>
		<polygon class="st4" points="1403.6,5188.8 1400.9,5188.8 1398.6,5191.7 1403.6,5191.7 		"/>
		<rect x="1488.1" y="5188.8" class="st4" width="3" height="2.9"/>
		<rect x="1577.2" y="5188.8" class="st4" width="7.4" height="2.9"/>
		<path class="st4" d="M1672.7,5188.8h-4.6v2.9h8.1C1676,5190,1674.7,5188.8,1672.7,5188.8z"/>
		<path class="st4" d="M1120.3,5249.5h3v-2.5h1.4c2,0,3.3-1.2,3.6-2.9h-8V5249.5z"/>
		<path class="st4" d="M1211.4,5249.5h3v-2.7h0.9l1.4,2.7h3.1l-1.8-3.3c0,0,1.2-0.6,1.4-2.2h-8.1L1211.4,5249.5z"/>
		<polygon class="st4" points="1303.2,5249.5 1310.7,5249.5 1310.7,5247 1306.2,5247 1306.2,5245.9 1309.5,5245.9 1309.5,5244 
			1303.2,5244 		"/>
		<polygon class="st4" points="1393,5249.5 1396,5249.5 1396,5244.5 1398.3,5247.3 1400.6,5244.5 1400.6,5249.5 1403.6,5249.5 
			1403.6,5244 1393,5244 		"/>
		<rect x="1488.1" y="5244" class="st4" width="3" height="5.4"/>
		<polygon class="st4" points="1577.2,5249.5 1584.8,5249.5 1584.8,5247 1580.2,5247 1580.2,5245.9 1583.6,5245.9 1583.6,5244 
			1577.2,5244 		"/>
		<path class="st4" d="M1676.2,5244h-8.1v5.4h3v-2.7h0.9l1.4,2.7h3.1l-1.8-3.3C1674.8,5246.2,1676,5245.6,1676.2,5244z"/>
	</g>
	<g>
		<path class="st4" d="M1124.7,5080h-4.4v2.9h8C1128,5081.2,1126.7,5080,1124.7,5080z"/>
		<path class="st4" d="M1216,5080h-4.6v2.9h8.1C1219.3,5081.2,1217.9,5080,1216,5080z"/>
		<rect x="1303.2" y="5080" class="st4" width="7.4" height="2.9"/>
		<polygon class="st4" points="1395.7,5080 1393,5080 1393,5082.9 1398,5082.9 		"/>
		<polygon class="st4" points="1403.6,5080 1400.9,5080 1398.6,5082.9 1403.6,5082.9 		"/>
		<rect x="1488.1" y="5080" class="st4" width="3" height="2.9"/>
		<rect x="1577.2" y="5080" class="st4" width="7.4" height="2.9"/>
		<path class="st4" d="M1672.7,5080h-4.6v2.9h8.1C1676,5081.2,1674.7,5080,1672.7,5080z"/>
		<path class="st4" d="M1120.3,5140.7h3v-2.5h1.4c2,0,3.3-1.2,3.6-2.9h-8V5140.7z"/>
		<path class="st4" d="M1211.4,5140.7h3v-2.7h0.9l1.4,2.7h3.1l-1.8-3.3c0,0,1.2-0.6,1.4-2.2h-8.1L1211.4,5140.7z"/>
		<polygon class="st4" points="1303.2,5140.7 1310.7,5140.7 1310.7,5138.2 1306.2,5138.2 1306.2,5137.1 1309.5,5137.1 
			1309.5,5135.3 1303.2,5135.3 		"/>
		<polygon class="st4" points="1393,5140.7 1396,5140.7 1396,5135.7 1398.3,5138.6 1400.6,5135.7 1400.6,5140.7 1403.6,5140.7 
			1403.6,5135.3 1393,5135.3 		"/>
		<rect x="1488.1" y="5135.3" class="st4" width="3" height="5.4"/>
		<polygon class="st4" points="1577.2,5140.7 1584.8,5140.7 1584.8,5138.2 1580.2,5138.2 1580.2,5137.1 1583.6,5137.1 
			1583.6,5135.3 1577.2,5135.3 		"/>
		<path class="st4" d="M1676.2,5135.3h-8.1v5.4h3v-2.7h0.9l1.4,2.7h3.1l-1.8-3.3C1674.8,5137.4,1676,5136.9,1676.2,5135.3z"/>
	</g>
	<g>
		<path class="st4" d="M1124.7,4971.2h-4.4v2.9h8C1128,4972.5,1126.7,4971.2,1124.7,4971.2z"/>
		<path class="st4" d="M1216,4971.2h-4.6v2.9h8.1C1219.3,4972.5,1217.9,4971.2,1216,4971.2z"/>
		<rect x="1303.2" y="4971.2" class="st4" width="7.4" height="2.9"/>
		<polygon class="st4" points="1395.7,4971.2 1393,4971.2 1393,4974.2 1398,4974.2 		"/>
		<polygon class="st4" points="1403.6,4971.2 1400.9,4971.2 1398.6,4974.2 1403.6,4974.2 		"/>
		<rect x="1488.1" y="4971.2" class="st4" width="3" height="2.9"/>
		<rect x="1577.2" y="4971.2" class="st4" width="7.4" height="2.9"/>
		<path class="st4" d="M1672.7,4971.2h-4.6v2.9h8.1C1676,4972.5,1674.7,4971.2,1672.7,4971.2z"/>
		<path class="st4" d="M1120.3,5032h3v-2.5h1.4c2,0,3.3-1.2,3.6-2.9h-8V5032z"/>
		<path class="st4" d="M1211.4,5032h3v-2.7h0.9l1.4,2.7h3.1l-1.8-3.3c0,0,1.2-0.6,1.4-2.2h-8.1L1211.4,5032z"/>
		<polygon class="st4" points="1303.2,5032 1310.7,5032 1310.7,5029.5 1306.2,5029.5 1306.2,5028.4 1309.5,5028.4 1309.5,5026.5 
			1303.2,5026.5 		"/>
		<polygon class="st4" points="1393,5032 1396,5032 1396,5027 1398.3,5029.8 1400.6,5027 1400.6,5032 1403.6,5032 1403.6,5026.5 
			1393,5026.5 		"/>
		<rect x="1488.1" y="5026.5" class="st4" width="3" height="5.4"/>
		<polygon class="st4" points="1577.2,5032 1584.8,5032 1584.8,5029.5 1580.2,5029.5 1580.2,5028.4 1583.6,5028.4 1583.6,5026.5 
			1577.2,5026.5 		"/>
		<path class="st4" d="M1676.2,5026.5h-8.1v5.4h3v-2.7h0.9l1.4,2.7h3.1l-1.8-3.3C1674.8,5028.7,1676,5028.1,1676.2,5026.5z"/>
	</g>
	<g>
		<path class="st4" d="M1124.7,4862.5h-4.4v2.9h8C1128,4863.7,1126.7,4862.5,1124.7,4862.5z"/>
		<path class="st4" d="M1216,4862.5h-4.6v2.9h8.1C1219.3,4863.7,1217.9,4862.5,1216,4862.5z"/>
		<rect x="1303.2" y="4862.5" class="st4" width="7.4" height="2.9"/>
		<polygon class="st4" points="1395.7,4862.5 1393,4862.5 1393,4865.4 1398,4865.4 		"/>
		<polygon class="st4" points="1403.6,4862.5 1400.9,4862.5 1398.6,4865.4 1403.6,4865.4 		"/>
		<rect x="1488.1" y="4862.5" class="st4" width="3" height="2.9"/>
		<rect x="1577.2" y="4862.5" class="st4" width="7.4" height="2.9"/>
		<path class="st4" d="M1672.7,4862.5h-4.6v2.9h8.1C1676,4863.7,1674.7,4862.5,1672.7,4862.5z"/>
		<path class="st4" d="M1120.3,4923.2h3v-2.5h1.4c2,0,3.3-1.2,3.6-2.9h-8V4923.2z"/>
		<path class="st4" d="M1211.4,4923.2h3v-2.7h0.9l1.4,2.7h3.1l-1.8-3.3c0,0,1.2-0.6,1.4-2.2h-8.1L1211.4,4923.2z"/>
		<polygon class="st4" points="1303.2,4923.2 1310.7,4923.2 1310.7,4920.7 1306.2,4920.7 1306.2,4919.6 1309.5,4919.6 
			1309.5,4917.8 1303.2,4917.8 		"/>
		<polygon class="st4" points="1393,4923.2 1396,4923.2 1396,4918.2 1398.3,4921.1 1400.6,4918.2 1400.6,4923.2 1403.6,4923.2 
			1403.6,4917.8 1393,4917.8 		"/>
		<rect x="1488.1" y="4917.8" class="st4" width="3" height="5.4"/>
		<polygon class="st4" points="1577.2,4923.2 1584.8,4923.2 1584.8,4920.7 1580.2,4920.7 1580.2,4919.6 1583.6,4919.6 
			1583.6,4917.8 1577.2,4917.8 		"/>
		<path class="st4" d="M1676.2,4917.8h-8.1v5.4h3v-2.7h0.9l1.4,2.7h3.1l-1.8-3.3C1674.8,4919.9,1676,4919.4,1676.2,4917.8z"/>
	</g>
</g>
<g>
	<g>
		<defs>
			<rect id="SVGID_11_" x="1651.6" y="1137.6" width="90.7" height="194.1"/>
		</defs>
		<clipPath id="SVGID_12_">
			<use xlink:href="#SVGID_11_"  style="overflow:visible;"/>
		</clipPath>
		<g class="st9">
			<polygon class="st0" points="1960.1,1147.3 1900.7,1163.2 1893.2,1165.2 1887.4,1159.7 1863.3,1136.6 1844.6,1136.6 
				1846.4,1138.3 1889.1,1180.8 1949.1,1166.3 1955.4,1164.8 1959.8,1169.2 1970.2,1179.6 1970.2,1156.9 			"/>
			<polygon class="st0" points="1790.5,1167.9 1824.3,1159.7 1833.3,1157.5 1839.6,1163.8 1882.3,1206.2 1942.3,1191.7 
				1948.6,1190.2 1953,1194.6 1970.2,1211.9 1970.2,1188.9 1953.3,1172.8 1893.9,1188.7 1886.4,1190.7 1880.6,1185.1 1837,1143.5 
				1812.8,1149.9 1779.9,1158.5 1770.2,1161 1762.9,1153.9 1744.8,1136.6 1729.2,1136.6 1766.8,1173.8 			"/>
			<polygon class="st0" points="1737.8,1429.8 1704.8,1438.5 1695.2,1441 1687.8,1433.9 1651.7,1399.2 1651.7,1414.1 1691.8,1453.7 
				1715.5,1447.9 1749.3,1439.6 1758.2,1437.4 1764.6,1443.7 1775.9,1455 1795.1,1455 1762,1423.4 			"/>
			<polygon class="st0" points="1690.5,1227.1 1698.2,1234.7 1739.5,1275.6 1763.3,1269.7 1797,1261.5 1806,1259.3 1812.3,1265.6 
				1855,1308 1915,1293.5 1921.3,1292 1925.7,1296.4 1949.6,1320.3 1970.2,1341.1 1970.2,1316.5 1946.6,1294.1 1926,1274.6 
				1866.6,1290.5 1859.1,1292.5 1853.3,1286.9 1809.7,1245.3 1785.5,1251.7 1752.6,1260.3 1742.9,1262.8 1735.6,1255.7 
				1693.6,1215.4 1651.7,1226.3 1651.7,1236.7 1679.7,1229.7 			"/>
			<polygon class="st0" points="1731.8,1455 1761.7,1455 1755.2,1448.9 			"/>
			<polygon class="st0" points="1895.9,1155.3 1955.9,1140.8 1962.2,1139.3 1966.6,1143.7 1970.2,1147.3 1970.2,1136.6 1912,1136.6 
				1907.5,1137.8 1900.1,1139.8 1896.7,1136.6 1877,1136.6 			"/>
			<polygon class="st0" points="1797.4,1142.5 1821.5,1136.6 1761.7,1136.6 1773.6,1148.3 			"/>
			<polygon class="st0" points="1651.7,1446.3 1660.6,1455 1676.5,1455 1651.7,1431.2 			"/>
			<polygon class="st0" points="1651.7,1136.6 1651.7,1141.6 1672.2,1136.6 			"/>
			<polygon class="st0" points="1869.6,1455 1880.7,1455 1878.2,1452.7 			"/>
			<polygon class="st0" points="1948.2,1423.2 1944.7,1420 1919.3,1395.9 1898.7,1376.4 1839.3,1392.3 1831.9,1394.3 1826.1,1388.7 
				1782.5,1347.1 1758.2,1353.5 1725.3,1362.1 1715.7,1364.6 1708.3,1357.5 1666.3,1317.2 1651.7,1321 1651.7,1331.7 1652.4,1331.5 
				1663.2,1328.9 1670.9,1336.5 1712.3,1377.4 1736,1371.5 1769.7,1363.3 1778.7,1361.1 1785,1367.4 1827.7,1409.8 1887.7,1395.3 
				1894,1393.8 1898.4,1398.2 1922.3,1422.1 1942.9,1442.9 1970.2,1436.4 1970.2,1417.2 1952.5,1422.1 			"/>
			<polygon class="st0" points="1955,1397.8 1951.6,1394.5 1926.1,1370.5 1905.5,1350.9 1846.1,1366.8 1838.7,1368.8 1832.9,1363.3 
				1789.3,1321.6 1765.1,1328 1732.1,1336.6 1722.5,1339.2 1715.1,1332.1 1673.1,1291.8 1651.7,1297.3 1651.7,1308 1659.3,1306.1 
				1670,1303.4 1677.7,1311 1719.1,1351.9 1742.8,1346.1 1776.6,1337.8 1785.5,1335.6 1791.8,1341.9 1834.5,1384.4 1894.5,1369.9 
				1900.9,1368.4 1905.2,1372.8 1929.1,1396.7 1949.7,1417.4 1970.2,1412.6 1970.2,1393.7 1959.3,1396.6 			"/>
			<polygon class="st0" points="1945.7,1447.5 1941.4,1448.7 1937.9,1445.4 1912.5,1421.4 1891.9,1401.8 1832.5,1417.7 1825,1419.7 
				1819.3,1414.2 1775.6,1372.5 1751.4,1378.9 1718.5,1387.6 1708.8,1390.1 1701.5,1383 1659.5,1342.7 1651.7,1344.7 1651.7,1355.5 
				1656.4,1354.3 1664.1,1361.9 1705.4,1402.8 1729.2,1397 1762.9,1388.7 1771.9,1386.5 1778.2,1392.8 1820.9,1435.3 1880.9,1420.8 
				1887.2,1419.3 1891.6,1423.7 1915.5,1447.6 1922.9,1455 1970.2,1455 1970.2,1440.8 			"/>
			<polygon class="st0" points="1961.8,1372.3 1958.4,1369.1 1932.9,1345 1912.3,1325.5 1853,1341.4 1845.5,1343.4 1839.7,1337.8 
				1796.1,1296.2 1771.9,1302.6 1738.9,1311.2 1729.3,1313.7 1721.9,1306.6 1680,1266.3 1651.7,1273.7 1651.7,1284.2 1666.1,1280.6 
				1676.8,1278 1684.5,1285.6 1725.9,1326.5 1749.6,1320.6 1783.4,1312.4 1792.3,1310.2 1798.7,1316.5 1841.3,1358.9 1901.3,1344.4 
				1907.7,1342.9 1912.1,1347.3 1936,1371.2 1956.6,1392 1970.2,1388.7 1970.2,1370.1 1966.2,1371.2 			"/>
			<polygon class="st0" points="1953.4,1268.7 1932.8,1249.1 1873.4,1265 1866,1267 1860.2,1261.5 1816.6,1219.8 1792.3,1226.2 
				1759.4,1234.8 1749.8,1237.4 1742.4,1230.3 1700.4,1189.9 1651.7,1202.6 1651.7,1212.9 1686.5,1204.3 1697.3,1201.6 1705,1209.2 
				1746.3,1250.1 1770.1,1244.3 1803.8,1236 1812.8,1233.8 1819.1,1240.1 1861.8,1282.6 1921.8,1268.1 1928.1,1266.6 1932.5,1271 
				1956.4,1294.9 1970.2,1308.8 1970.2,1284.6 			"/>
			<polygon class="st0" points="1960.2,1243.2 1939.6,1223.7 1880.2,1239.6 1872.8,1241.6 1867,1236 1823.4,1194.4 1799.2,1200.8 
				1766.2,1209.4 1756.6,1211.9 1749.2,1204.8 1707.2,1164.5 1651.7,1179 1651.7,1189.2 1693.4,1178.8 1704.1,1176.2 1711.8,1183.8 
				1753.2,1224.7 1776.9,1218.8 1810.7,1210.6 1819.6,1208.4 1825.9,1214.7 1868.6,1257.1 1928.6,1242.6 1934.9,1241.1 
				1939.3,1245.5 1963.2,1269.4 1970.2,1276.4 1970.2,1252.7 			"/>
			<polygon class="st0" points="1967,1217.8 1946.4,1198.2 1887,1214.1 1879.6,1216.1 1873.8,1210.6 1830.2,1168.9 1806,1175.3 
				1773,1183.9 1763.4,1186.5 1756,1179.4 1714.1,1139 1658.5,1153.5 1651.7,1155.3 1651.7,1165.4 1700.2,1153.4 1710.9,1150.7 
				1718.6,1158.3 1760,1199.2 1783.7,1193.4 1817.5,1185.1 1826.4,1182.9 1832.8,1189.2 1875.4,1231.7 1935.4,1217.2 1941.8,1215.7 
				1946.2,1220.1 1970.1,1244 1970.2,1244.1 1970.2,1220.8 			"/>
			<polygon class="st0" points="1683.6,1252.5 1691.4,1260.1 1732.7,1301 1756.4,1295.2 1790.2,1286.9 1799.2,1284.7 1805.5,1291 
				1848.2,1333.5 1908.2,1319 1914.5,1317.5 1918.9,1321.9 1942.8,1345.8 1963.4,1366.5 1970.2,1364.9 1970.2,1346.5 1968.6,1346.9 
				1965.2,1343.6 1939.8,1319.6 1919.2,1300 1859.8,1315.9 1852.3,1317.9 1846.5,1312.4 1802.9,1270.7 1778.7,1277.1 1745.8,1285.7 
				1736.1,1288.3 1728.8,1281.2 1686.8,1240.9 1651.7,1250 1651.7,1260.4 1672.9,1255.2 			"/>
			<polygon class="st0" points="1885.1,1427.3 1825.7,1443.2 1818.2,1445.2 1812.4,1439.6 1768.8,1398 1744.6,1404.4 1711.7,1413 
				1702,1415.5 1694.7,1408.4 1652.7,1368.1 1651.7,1368.4 1651.7,1381.9 1657.3,1387.4 1698.6,1428.3 1722.3,1422.4 1756.1,1414.2 
				1765.1,1412 1771.4,1418.3 1808.3,1455 1837.6,1455 1874.1,1446.2 1880.4,1444.7 1884.8,1449.1 1890.7,1455 1914.3,1455 
				1905.7,1446.8 			"/>
		</g>
	</g>
</g>
<path class="st1" d="M1743.1,795.9l-69,0.1l0.1,43.3h121.5C1792.7,814.5,1772.5,795.9,1743.1,795.9z"/>
<polygon class="st1" points="68.8,1485.5 190.1,1485.5 190.1,1445.8 117.1,1445.8 117.1,1427.5 170.8,1427.5 170.8,1398.1 
	68.8,1398.1 "/>
<g>
	<g>
		<defs>
			<rect id="SVGID_13_" x="1697.3" y="4291.8" width="222.7" height="194.1"/>
		</defs>
		<clipPath id="SVGID_14_">
			<use xlink:href="#SVGID_13_"  style="overflow:visible;"/>
		</clipPath>
		<g class="st10">
			<polygon class="st1" points="2005.8,4301.4 1946.4,4317.3 1938.9,4319.3 1933.1,4313.8 1909,4290.8 1890.3,4290.8 1892.1,4292.4 
				1934.8,4334.9 1994.8,4320.4 2001.1,4318.9 2005.5,4323.3 2015.9,4333.8 2015.9,4311 			"/>
			<polygon class="st1" points="1836.2,4322 1870,4313.8 1879,4311.6 1885.3,4317.9 1928,4360.3 1988,4345.8 1994.3,4344.3 
				1998.7,4348.8 2015.9,4366 2015.9,4343 1999,4326.9 1939.6,4342.8 1932.1,4344.8 1926.3,4339.2 1882.7,4297.6 1858.5,4304 
				1825.6,4312.6 1815.9,4315.1 1808.6,4308 1790.5,4290.8 1774.9,4290.8 1812.5,4327.9 			"/>
			<polygon class="st1" points="1783.5,4583.9 1750.5,4592.6 1740.9,4595.1 1733.5,4588 1697.4,4553.3 1697.4,4568.2 1737.5,4607.8 
				1761.2,4602 1795,4593.8 1803.9,4591.5 1810.3,4597.8 1821.6,4609.1 1840.8,4609.1 1807.7,4577.5 			"/>
			<polygon class="st1" points="1736.2,4381.2 1743.9,4388.8 1785.2,4429.8 1809,4423.8 1842.7,4415.6 1851.7,4413.4 1858,4419.8 
				1900.7,4462.1 1960.7,4447.6 1967,4446.1 1971.4,4450.5 1995.3,4474.4 2015.9,4495.2 2015.9,4470.6 1992.3,4448.2 1971.7,4428.8 
				1912.3,4444.6 1904.8,4446.6 1899,4441 1855.4,4399.4 1831.2,4405.8 1798.3,4414.4 1788.6,4416.9 1781.3,4409.8 1739.3,4369.5 
				1697.4,4380.4 1697.4,4390.8 1725.4,4383.8 			"/>
			<polygon class="st1" points="1777.5,4609.1 1807.4,4609.1 1800.9,4603 			"/>
			<polygon class="st1" points="1941.6,4309.4 2001.6,4294.9 2007.9,4293.4 2012.3,4297.8 2015.9,4301.4 2015.9,4290.8 
				1957.7,4290.8 1953.2,4291.9 1945.8,4293.9 1942.4,4290.8 1922.7,4290.8 			"/>
			<polygon class="st1" points="1843.1,4296.6 1867.2,4290.8 1807.4,4290.8 1819.3,4302.4 			"/>
			<polygon class="st1" points="1697.4,4600.4 1706.3,4609.1 1722.2,4609.1 1697.4,4585.3 			"/>
			<polygon class="st1" points="1697.4,4290.8 1697.4,4295.8 1717.9,4290.8 			"/>
			<polygon class="st1" points="1915.3,4609.1 1926.4,4609.1 1923.9,4606.8 			"/>
			<polygon class="st1" points="1993.9,4577.3 1990.4,4574.1 1965,4550 1944.4,4530.5 1885,4546.4 1877.6,4548.4 1871.8,4542.8 
				1828.2,4501.2 1803.9,4507.6 1771,4516.2 1761.4,4518.8 1754,4511.6 1712,4471.3 1697.4,4475.1 1697.4,4485.8 1698.1,4485.6 
				1708.9,4483 1716.6,4490.6 1758,4531.5 1781.7,4525.6 1815.4,4517.4 1824.4,4515.2 1830.7,4521.5 1873.4,4563.9 1933.4,4549.4 
				1939.7,4547.9 1944.1,4552.3 1968,4576.2 1988.6,4597 2015.9,4590.5 2015.9,4571.3 1998.2,4576.2 			"/>
			<polygon class="st1" points="2000.7,4551.9 1997.3,4548.6 1971.8,4524.6 1951.2,4505 1891.8,4520.9 1884.4,4522.9 1878.6,4517.4 
				1835,4475.8 1810.8,4482.1 1777.8,4490.8 1768.2,4493.3 1760.8,4486.2 1718.8,4445.9 1697.4,4451.4 1697.4,4462.1 1705,4460.2 
				1715.7,4457.5 1723.4,4465.1 1764.8,4506 1788.5,4500.2 1822.3,4491.9 1831.2,4489.8 1837.5,4496 1880.2,4538.5 1940.2,4524 
				1946.6,4522.5 1950.9,4526.9 1974.8,4550.8 1995.4,4571.5 2015.9,4566.8 2015.9,4547.8 2005,4550.8 			"/>
			<polygon class="st1" points="1991.4,4601.6 1987.1,4602.8 1983.6,4599.5 1958.2,4575.5 1937.6,4555.9 1878.2,4571.8 
				1870.7,4573.8 1865,4568.3 1821.3,4526.6 1797.1,4533 1764.2,4541.8 1754.5,4544.2 1747.2,4537.1 1705.2,4496.8 1697.4,4498.8 
				1697.4,4509.6 1702.1,4508.4 1709.8,4516 1751.1,4556.9 1774.9,4551.1 1808.6,4542.8 1817.6,4540.6 1823.9,4546.9 1866.6,4589.4 
				1926.6,4574.9 1932.9,4573.4 1937.3,4577.8 1961.2,4601.8 1968.6,4609.1 2015.9,4609.1 2015.9,4594.9 			"/>
			<polygon class="st1" points="2007.5,4526.4 2004.1,4523.2 1978.6,4499.1 1958,4479.6 1898.7,4495.5 1891.2,4497.5 1885.4,4491.9 
				1841.8,4450.3 1817.6,4456.8 1784.6,4465.3 1775,4467.8 1767.6,4460.8 1725.7,4420.4 1697.4,4427.8 1697.4,4438.3 1711.8,4434.8 
				1722.5,4432.1 1730.2,4439.8 1771.6,4480.6 1795.3,4474.8 1829.1,4466.5 1838,4464.3 1844.4,4470.6 1887,4513 1947,4498.5 
				1953.4,4497 1957.8,4501.4 1981.7,4525.3 2002.3,4546.1 2015.9,4542.8 2015.9,4524.2 2011.9,4525.3 			"/>
			<polygon class="st1" points="1999.1,4422.8 1978.5,4403.2 1919.1,4419.1 1911.7,4421.1 1905.9,4415.6 1862.3,4373.9 1838,4380.3 
				1805.1,4388.9 1795.5,4391.5 1788.1,4384.4 1746.1,4344 1697.4,4356.8 1697.4,4367 1732.2,4358.4 1743,4355.8 1750.7,4363.3 
				1792,4404.2 1815.8,4398.4 1849.5,4390.1 1858.5,4387.9 1864.8,4394.2 1907.5,4436.8 1967.5,4422.2 1973.8,4420.8 1978.2,4425.1 
				2002.1,4449 2015.9,4462.9 2015.9,4438.8 			"/>
			<polygon class="st1" points="2005.9,4397.3 1985.3,4377.8 1925.9,4393.8 1918.5,4395.8 1912.7,4390.1 1869.1,4348.5 
				1844.9,4354.9 1811.9,4363.5 1802.3,4366 1794.9,4358.9 1752.9,4318.6 1697.4,4333.1 1697.4,4343.3 1739.1,4332.9 1749.8,4330.3 
				1757.5,4337.9 1798.9,4378.8 1822.6,4372.9 1856.4,4364.8 1865.3,4362.5 1871.6,4368.8 1914.3,4411.2 1974.3,4396.8 
				1980.6,4395.2 1985,4399.6 2008.9,4423.5 2015.9,4430.5 2015.9,4406.8 			"/>
			<polygon class="st1" points="2012.7,4371.9 1992.1,4352.3 1932.7,4368.2 1925.3,4370.2 1919.5,4364.8 1875.9,4323 1851.7,4329.4 
				1818.7,4338 1809.1,4340.6 1801.7,4333.5 1759.8,4293.1 1704.2,4307.6 1697.4,4309.4 1697.4,4319.5 1745.9,4307.5 1756.6,4304.8 
				1764.3,4312.4 1805.7,4353.3 1829.4,4347.5 1863.2,4339.2 1872.1,4337 1878.5,4343.3 1921.1,4385.8 1981.1,4371.3 1987.5,4369.8 
				1991.9,4374.2 2015.8,4398.1 2015.9,4398.2 2015.9,4374.9 			"/>
			<polygon class="st1" points="1729.3,4406.6 1737.1,4414.2 1778.4,4455.1 1802.1,4449.3 1835.9,4441 1844.9,4438.8 1851.2,4445.1 
				1893.9,4487.6 1953.9,4473.1 1960.2,4471.6 1964.6,4476 1988.5,4499.9 2009.1,4520.6 2015.9,4519 2015.9,4500.6 2014.3,4501 
				2010.9,4497.8 1985.5,4473.8 1964.9,4454.1 1905.5,4470 1898,4472 1892.2,4466.5 1848.6,4424.8 1824.4,4431.2 1791.5,4439.8 
				1781.8,4442.4 1774.5,4435.3 1732.5,4395 1697.4,4404.1 1697.4,4414.5 1718.6,4409.3 			"/>
			<polygon class="st1" points="1930.8,4581.4 1871.4,4597.3 1863.9,4599.3 1858.1,4593.8 1814.5,4552.1 1790.3,4558.5 
				1757.4,4567.1 1747.7,4569.6 1740.4,4562.5 1698.4,4522.2 1697.4,4522.5 1697.4,4536 1703,4541.5 1744.3,4582.4 1768,4576.5 
				1801.8,4568.3 1810.8,4566.1 1817.1,4572.4 1854,4609.1 1883.3,4609.1 1919.8,4600.3 1926.1,4598.8 1930.5,4603.2 1936.4,4609.1 
				1960,4609.1 1951.4,4600.9 			"/>
		</g>
	</g>
</g>
</svg>
